<?xml version="1.0" encoding="UTF-8" standalone="no"?>
<svg
   version="1.1"
   id="Layer_1"
   x="0px"
   y="0px"
   width="100%"
   viewBox="0 0 1024 1024"
   enable-background="new 0 0 1024 1024"
   xml:space="preserve"
   sodipodi:docname="logo_planMX.svg"
   inkscape:version="1.4.2 (ebf0e940, 2025-05-08)"
   xmlns:inkscape="http://www.inkscape.org/namespaces/inkscape"
   xmlns:sodipodi="http://sodipodi.sourceforge.net/DTD/sodipodi-0.dtd"
   xmlns="http://www.w3.org/2000/svg"
   xmlns:svg="http://www.w3.org/2000/svg"><defs
   id="defs895" /><sodipodi:namedview
   id="namedview895"
   pagecolor="#ffffff"
   bordercolor="#000000"
   borderopacity="0.25"
   inkscape:showpageshadow="2"
   inkscape:pageopacity="0.0"
   inkscape:pagecheckerboard="0"
   inkscape:deskcolor="#d1d1d1"
   inkscape:zoom="0.61887121"
   inkscape:cx="709.35599"
   inkscape:cy="608.36567"
   inkscape:window-width="1680"
   inkscape:window-height="1050"
   inkscape:window-x="0"
   inkscape:window-y="0"
   inkscape:window-maximized="0"
   inkscape:current-layer="Layer_1" />
<path
   fill="#000000"
   opacity="1"
   stroke="none"
   d="m -0.310911,395 c 0,-131.66666 0,-262.8333 0,-393.9999634 341.333301,-2e-5 682.666601,-2e-5 1024.000011,-3e-5 0,341.3332434 0,682.6664934 0,1023.9996934 -341.33311,10e-5 -682.66631,10e-5 -1023.999811,2e-4 -2e-4,-209.83321 -2e-4,-419.66659 -2e-4,-629.9999 M 512.67559,549.05225 c 0,0 0.051,0.10601 0.6109,-0.0398 0.166,-0.32916 0.3321,-0.65826 0.4247,-0.99048 0,0 -10e-4,0.0734 0.5548,-0.0502 0.1727,-0.31812 0.3453,-0.63623 0.4395,-0.95544 0,0 10e-5,0.0786 0.5611,-0.0324 0.1707,-0.32434 0.3414,-0.64869 0.4317,-0.97486 0,0 -0.001,0.0803 0.5709,-0.0362 0.1984,-0.31696 0.3967,-0.63397 0.4738,-0.99884 0,0 -0.048,0.12103 0.5187,0.0132 0.1706,-0.33001 0.3413,-0.66009 0.4228,-0.99377 0,0 0,0.0891 0.5856,-0.0529 0.2574,-0.30987 0.5148,-0.61975 1.1214,-0.96289 0.2439,-0.1178 0.3493,-0.3111 0.8309,-0.92255 0.1865,-0.35064 0.3731,-0.70123 0.473,-1.03778 0,0 0.015,0.0864 0.5799,-0.0223 0.1704,-0.32415 0.3407,-0.64825 0.4354,-0.97351 0,0 5e-4,0.0758 0.5669,-0.0282 0.1689,-0.32496 0.3378,-0.64991 0.429,-0.97638 0,0 -2e-4,0.0777 0.5552,-0.0426 0.171,-0.32422 0.342,-0.64849 0.4266,-0.98382 0,0 -0.011,0.0865 0.5591,-0.057 0.2502,-0.29516 0.5004,-0.59039 1.1302,-0.96142 0.2363,-0.1651 0.3371,-0.39081 0.806,-0.99543 0.1944,-0.33148 0.3888,-0.66302 0.4956,-0.95135 0,0 0.043,0.0878 0.6129,-0.13129 0.5038,-0.61725 1.0076,-1.23443 1.4348,-1.88189 0,0 -0.029,0.0772 0.5219,-0.0509 0.1758,-0.31689 0.3516,-0.63373 0.4496,-0.95386 0,0 0,0.0779 0.5399,-0.0617 0.1787,-0.31287 0.3575,-0.6258 0.4609,-0.93292 0,0 0.01,0.0752 0.5577,-0.0458 0.1726,-0.3169 0.3452,-0.63373 0.4408,-0.96149 0,0 -0.01,0.077 0.5554,-0.0919 0.237,-0.31073 0.474,-0.6214 1.0863,-0.99786 0.249,-0.14532 0.3574,-0.36115 0.9519,-1.04767 0.2098,-0.61108 0.4195,-1.22223 0.4561,-1.83044 0,0 0.01,0.17315 0.7657,0.349 0.1299,-0.43805 0.2597,-0.87604 0.2215,-1.31025 0,0 0.01,0.16785 0.6644,0.45881 0.456,-0.51105 0.912,-1.02216 1.2934,-1.53382 0,0 10e-5,0.0746 0.6206,-0.23224 0.2067,-0.57086 0.4135,-1.14172 0.4597,-1.71154 0,0 0.01,0.1604 0.7409,0.30358 0.1236,-0.43237 0.2472,-0.86474 0.3734,-0.89422 0,0 0.4029,0.007 0.7263,-0.19806 0,0 0.159,-0.34863 0.7532,-0.65003 2.7441,-2.09918 2.7593,-4.05108 0.087,-6.40448 -5.6406,-4.96746 -11.1086,-10.1311 -16.8464,-15.8609 -1.2776,-1.18005 -2.5551,-2.3601 -3.9195,-3.45031 0,0 0.09,0.087 -0.029,-0.4715 -0.3213,-0.17255 -0.6426,-0.34509 -0.8865,-0.42081 0,0 0.097,-0.0772 -0.097,-0.67212 -0.5994,-0.54632 -1.1989,-1.09262 -1.8063,-1.53781 0,0 0.1011,-0.007 -0.2133,-0.59985 -2.8631,-2.87711 -5.7262,-5.75424 -8.6367,-8.67896 0.9417,-1.20974 1.8377,-2.36077 2.669,-3.5166 0,0 0.01,0.0644 0.547,-0.19928 0.5087,-0.59683 1.0174,-1.19363 1.4618,-1.79934 0,0 0.01,0.0644 0.5692,-0.19016 0.2703,-0.52853 0.5406,-1.05704 0.6686,-1.71466 0,0 -0.1244,0.14636 0.6031,0.22989 0.1199,-0.41946 0.2399,-0.83893 0.2164,-1.13941 0,0 0.1222,0.14075 0.7947,0.11594 0.1552,-0.38537 0.3103,-0.77078 0.4093,-0.88089 0,0 0.2752,0.0567 0.8298,-0.27405 1.7877,-1.91201 3.5753,-3.82406 5.1843,-5.9443 0,0 0.1349,0.23892 0.6873,-0.12503 2.1748,-2.16703 4.3497,-4.33402 6.4851,-6.77237 0,0 -0.2716,0.0381 0.4151,-0.01 0.1432,-0.38721 0.2862,-0.77444 0.2711,-1.13248 0,0 0.04,0.15571 0.7352,0.16443 0.1439,-0.39511 0.2878,-0.79025 0.2715,-1.16531 0,0 0.032,0.15826 0.724,0.16812 0.1489,-0.39349 0.2978,-0.78696 0.2705,-1.08676 0,0 0.1032,0.17084 0.7383,0.13089 0.3983,-0.45746 0.7965,-0.91492 1.1249,-1.3718 0,0 0,0.0697 0.5453,-0.18719 0.2834,-0.50501 0.5669,-1.01004 0.7472,-1.51013 0,0 0.028,0.0996 0.6477,0.0659 0.3955,-0.44312 0.791,-0.88624 1.0849,-1.36408 0,0 -0.033,0.10208 0.5271,-0.0352 0.1752,-0.32525 0.3504,-0.65054 0.4241,-0.95184 0,0 0.024,0.10162 0.6079,-0.024 0.2012,-0.32547 0.4025,-0.65091 0.4335,-0.97262 0,0 0.01,0.17007 0.5775,0.001 0.1638,-0.34051 0.3276,-0.68103 0.4001,-0.89618 0,0 0.1247,0.0922 0.7392,-0.16778 1.4731,-1.63321 2.9462,-3.26642 4.3271,-4.96961 0,0 -0.07,0.0924 0.5368,0.0212 0.2311,-0.29251 0.4621,-0.58502 0.4982,-0.87631 0,0 0.011,0.19458 0.6636,0.0959 0.1937,-0.36841 0.3874,-0.73679 0.3362,-1.0112 0,0 0.1031,0.24124 0.7289,0.0622 0.1757,-0.36258 0.3513,-0.72519 0.3654,-1.05084 0,0 0.052,0.15735 0.711,0.0811 0.162,-0.37082 0.324,-0.74163 0.4735,-0.79593 0,0 0.3163,0.0165 0.7837,-0.32904 0.6605,-0.71167 1.3209,-1.42334 2.6965,-2.11993 0.7626,0.23163 1.7623,0.23059 2.2521,0.72986 6.9176,7.0502 13.7658,14.16843 20.8426,21.82062 0.3421,0.15847 0.6843,0.31695 1.0095,0.38675 0,0 -0.088,0.0185 0,0.60211 0.3265,0.19177 0.6531,0.38354 1.0345,0.46637 0,0 -0.1095,-0.0539 -9e-4,0.5101 0.3294,0.16577 0.6588,0.33154 0.9896,0.41626 0,0 -0.081,-9.2e-4 0.029,0.57239 0.3191,0.18438 0.6382,0.36877 0.9385,0.428 0,0 -0.1249,0.0204 0.016,0.58649 0.3357,0.16721 0.6713,0.33438 1.0081,0.42133 0,0 -0.08,1.2e-4 0.023,0.61065 0.3203,0.25391 0.6407,0.50785 1.1124,1.23905 0.5202,0.3927 1.0404,0.7854 1.8492,1.70761 0.3438,0.17309 0.6877,0.34619 0.9978,0.40695 0,0 -0.1124,0.0333 0.034,0.59726 0.333,0.17078 0.6661,0.34152 1.0057,0.42358 0,0 -0.089,-0.007 0.054,0.5542 0.3152,0.19016 0.6303,0.38031 0.9669,0.4531 0,0 -0.1172,-0.0225 -0.011,0.57995 0.3191,0.25116 0.6382,0.50232 1.0001,1.12806 0.1326,0.25241 0.3411,0.36914 0.9178,0.89761 0.3511,0.19226 0.7022,0.38452 1.1048,0.44104 0,0 -0.1354,-0.0523 -0.027,0.53491 0.3288,0.19025 0.6576,0.3805 0.9713,0.39865 0,0 -0.1721,0.0155 -0.02,0.60489 0.3458,0.16803 0.6916,0.33606 0.868,0.40753 0,0 -0.099,0.16822 0.2013,0.7313 0.9276,0.854 1.8553,1.708 2.9676,2.45605 0,0 -0.1036,-0.18603 -0.046,0.43417 0.3458,0.16779 0.6918,0.33558 1.0034,0.35944 0,0 -0.1438,0.0346 -0.057,0.66306 0.3618,0.15881 0.7236,0.31765 0.8632,0.34423 0,0 -0.1355,0.22031 0.054,0.67868 0,0 0.3725,0.32758 0.699,0.88749 2.6789,2.72876 5.2597,5.56402 8.0672,8.15341 2.3511,2.16842 4.9669,4.04968 8.1677,6.20932 0.3249,-1.97727 1.3092,-4.11517 0.8725,-5.9068 -4.2731,-17.53555 -8.7516,-35.02145 -13.2388,-52.50424 -2.3705,-9.23581 -4.8735,-18.43762 -7.3812,-27.53046 0,0 0.1246,0.0639 0.053,-0.53644 -0.3527,-1.23074 -0.7054,-2.46148 -1.0146,-4.06543 0,0 -0.1169,-0.35705 0.04,-0.62796 0.016,-0.1318 0.07,-0.27228 0.041,-0.39361 -0.058,-0.24814 -0.1601,-0.486 -0.1538,-1.55948 -0.3763,-1.58371 -0.7526,-3.16739 -1.0347,-5.57047 -1.6468,-6.73614 -3.2934,-13.47229 -4.9379,-21.0267 -1.8276,-7.43109 -3.6553,-14.86218 -5.4829,-22.29327 -0.6889,-0.4628 -1.3779,-0.92563 -2.0669,-1.38843 -0.9915,1.65707 -1.983,3.31412 -2.9075,5.09466 0,0 0.1157,-0.0796 -0.4679,0.1 -0.1689,0.35107 -0.3378,0.70218 -0.4662,0.8417 0,0 -0.2122,-0.037 -0.7154,0.37003 -2.7391,2.99786 -5.4781,5.99573 -8.7565,9.25388 -0.083,0.18161 -0.1657,0.36325 -0.8316,0.8594 -1.5137,1.60272 -3.0273,3.20545 -4.3952,4.86524 0,0 0.05,-0.1482 -0.5082,0.0681 -0.1723,0.34421 -0.3445,0.68842 -0.3945,1.02118 0,0 -0.012,-0.12228 -0.5827,0.0205 -0.1751,0.32959 -0.3502,0.65921 -0.4096,0.96155 0,0 -0.028,-0.1157 -0.5868,0.0349 -0.1738,0.32736 -0.3475,0.65472 -0.4393,0.98361 0,0 7e-4,-0.0821 -0.6086,0.0333 -0.2555,0.32248 -0.511,0.64496 -1.117,1.01212 -0.2384,0.12985 -0.3374,0.32895 -0.8104,0.93002 -0.1774,0.35022 -0.3548,0.70044 -0.4247,1.02893 0,0 -0.021,-0.10766 -0.5879,0.0294 -0.1765,0.32581 -0.3529,0.65164 -0.4209,0.94864 0,0 -0.028,-0.10858 -0.5858,0.0379 -0.1735,0.32843 -0.3471,0.65683 -0.4414,0.98203 0,0 0,-0.0793 -0.5672,0.0306 -0.1777,0.32141 -0.3553,0.64282 -0.4397,0.98233 0,0 0.018,-0.0933 -0.5614,0.0151 -0.2414,0.30097 -0.4827,0.6019 -1.129,0.97989 -0.2655,0.15519 -0.3908,0.38636 -0.8854,0.97235 -0.2155,0.31299 -0.4311,0.62598 -1.2023,1.12067 -0.5697,0.96964 -1.1394,1.9393 -2.1666,3.07608 0,0 -0.098,0.47724 -0.6001,0.56662 -0.5249,0.64597 -1.0498,1.2919 -2.2165,2.28476 -0.091,0.22562 -0.1816,0.45126 -0.6351,0.81268 -0.3453,0.36789 -0.6907,0.73578 -1.5028,1.22959 0,0 -0.1326,0.46487 -0.7305,0.64071 -1.9462,1.55542 -3.8924,3.11087 -5.9571,4.67566 0,0 -0.037,0.11313 -0.5688,0.47473 -2.0092,2.00123 -4.0186,4.00245 -5.9072,6.05082 0,0 0.041,-0.12281 -0.5121,0.0857 -0.206,0.32483 -0.4119,0.64966 -0.4984,0.94406 0,0 -0.036,-0.11786 -0.59,0.19611 -0.8742,1.29004 -1.7484,2.58008 -3.1163,3.93893 0,0 -0.2137,0.45032 -0.7577,0.63068 -0.9372,0.64688 -1.8745,1.29376 -2.7571,2.19314 0,0 0.2535,-0.0505 -0.3961,-0.0709 -0.1772,0.36032 -0.3544,0.72064 -0.3993,1.14887 0,0 0.065,-0.13376 -0.6206,-0.19083 -0.1544,0.38574 -0.3088,0.77148 -0.3091,1.06985 0,0 -0.091,-0.15207 -0.8021,-0.0902 -0.1228,0.39353 -0.2456,0.78705 -0.325,0.76719 0,0 -0.4123,-0.0524 -0.9411,0.30801 -1.6631,1.70764 -3.3262,3.41528 -4.9198,5.14499 0,0 0.021,-0.0698 -0.5217,0.0734 -0.1791,0.3129 -0.3583,0.62583 -0.4646,0.93717 0,0 0,-0.0728 -0.5494,0.0545 -0.1755,0.31458 -0.351,0.62915 -0.4517,0.94678 0,0 0,-0.0749 -0.543,0.0603 -0.1772,0.31436 -0.3545,0.62873 -0.4518,0.9412 0,0 0,-0.08 -0.5512,0.0486 -0.1773,0.31522 -0.3547,0.63043 -0.458,0.94431 0,0 0,-0.074 -0.5509,0.0506 -0.1747,0.31528 -0.3494,0.63056 -0.4516,0.94687 0,0 -2e-4,-0.0725 -0.5499,0.0541 -0.1736,0.3168 -0.3472,0.63361 -0.4375,0.89829 0,0 -0.053,-0.0829 -0.6444,0.10095 -0.5332,0.61288 -1.0664,1.22577 -1.4654,1.95608 0,0 0.1168,-0.1347 -0.4779,-0.01 -0.2006,0.33584 -0.4012,0.67172 -0.4752,0.88186 0,0 -0.1283,-0.12399 -0.7232,0.17801 -2.1422,2.27857 -4.2844,4.55716 -6.3542,6.58625 0,0 -0.2488,-0.075 -0.7972,0.1929 -0.8445,0.85003 -1.6889,1.70007 -2.5401,2.94598 0,0 0.3955,0.0172 -0.3447,-0.10678 -0.1233,0.42807 -0.2465,0.85614 -0.3167,0.89041 0,0 -0.3926,-0.0613 -0.8976,0.21591 -0.4885,0.57621 -0.977,1.15238 -1.3977,2.09604 0,0 0.3687,-0.0602 -0.3827,-0.17584 -0.1384,0.40341 -0.2769,0.80679 -0.2501,1.21933 0,0 0,-0.16541 -0.6486,-0.46631 -0.4564,0.51093 -0.9127,1.02182 -1.2913,1.552 0,0 0.019,-0.0779 -0.5239,0.0713 -0.1828,0.31311 -0.3655,0.62625 -0.461,0.93518 0,0 0,-0.0872 -0.5551,0.0465 -0.1783,0.31732 -0.3565,0.63465 -0.4441,0.89932 0,0 -0.053,-0.0904 -0.6319,0.11637 -0.526,0.61029 -1.052,1.22061 -1.4717,1.9158 0,0 0.083,-0.10745 -0.4886,0.0142 -0.1684,0.33313 -0.3368,0.66629 -0.4207,1.00079 0,0 8e-4,-0.0845 -0.5799,0.006 -0.2101,0.31818 -0.42,0.63638 -0.5107,0.90161 0,0 -0.059,-0.11639 -0.6582,0.18945 -3.0842,3.29667 -6.1684,6.59333 -9.8855,10.11371 -2.7865,2.91056 -5.573,5.82111 -9.0325,8.89737 -1.84,1.59134 -3.68,3.18271 -5.9577,5.15268 7.3913,6.86798 14.4199,13.39896 21.6079,20.42331 0.2867,0.17575 0.5734,0.35147 0.8474,0.45163 0,0 -0.072,0.0269 0.1406,0.47775 0.1869,0.31415 0.463,0.47425 1.0874,1.02271 0.6306,0.47436 1.2612,0.9487 2.098,1.98904 0.7397,0.66361 1.4795,1.32721 2.5912,2.51169 1.2021,1.09836 2.4041,2.19669 3.9505,3.34311 0,0 0.059,-0.3428 -0.1411,0.42264 0.4551,0.1084 0.9102,0.2168 1.3735,0.19073 0,0 -0.1347,-0.002 -0.2775,0.75269 0.4214,0.12924 0.8428,0.25848 1.2637,0.22241 0,0 -0.1652,0.006 -0.4832,0.65482 0.518,0.45733 1.0359,0.91467 1.5568,1.30151 0,0 -0.071,7.9e-4 0.2576,0.59607 0.5759,0.19836 1.1518,0.39679 1.7325,0.4328 0,0 -0.1624,-0.002 -0.334,0.73737 0.4072,0.15368 0.8144,0.30737 1.1834,0.31451 0,0 -0.144,0.0472 -0.3936,0.69 0.4477,0.46216 0.8954,0.92438 1.2936,2.04138 -3.2338,3.04132 -6.4678,6.08271 -10.1628,9.00861 -1.9866,1.95569 -3.9731,3.91138 -5.8378,6.06464 0,0 0.1967,-0.12336 -0.4975,-0.14051 -0.1377,0.38977 -0.2755,0.77954 -0.2905,1.17377 0,0 -5e-4,-0.12286 -0.7148,-0.20178 -0.1448,0.39026 -0.2896,0.78045 -0.3078,1.17932 0,0 0,-0.12695 -0.7347,-0.24738 -0.1376,0.40754 -0.2753,0.81507 -0.2555,1.22907 0,0 -6e-4,-0.15747 -0.6529,-0.43616 -0.453,0.50745 -0.9061,1.01483 -1.2704,1.5492 0,0 0.027,-0.0886 -0.5019,0.0884 -0.1892,0.30841 -0.3784,0.61682 -0.4732,0.91046 0,0 -0.014,-0.0947 -0.562,0.0455 -0.1804,0.3158 -0.3609,0.63159 -0.4598,0.94287 0,0 -0.01,-0.0815 -0.5634,0.0414 -0.176,0.31745 -0.3519,0.63489 -0.4465,0.95362 0,0 6e-4,-0.0815 -0.5663,0.0264 -0.1738,0.32264 -0.3475,0.64527 -0.4373,0.97028 0,0 10e-4,-0.0839 -0.5786,0.0217 -0.1948,0.32782 -0.3896,0.65558 -0.4276,0.9284 0,0 -0.057,-0.156 -0.6168,0.11164 -0.5433,0.61047 -1.0866,1.22088 -1.4889,1.83215 0,0 -0.01,-0.14081 -0.6162,0.15009 -1.8976,1.86401 -3.7951,3.72802 -5.5885,5.8374 0,0 0.2456,-0.10394 -0.4805,-0.1286 -0.132,0.39721 -0.264,0.79437 -0.2564,1.19562 0,0 -0.001,-0.13978 -0.7631,-0.27936 -0.1343,0.41821 -0.2685,0.83648 -0.232,1.23187 0,0 -0.029,-0.1698 -0.7002,-0.42426 -0.4618,0.49134 -0.9235,0.98261 -1.3049,1.46174 0,0 -0.017,-0.0793 -0.5835,0.1499 -0.1474,1.19458 -0.8297,2.73913 -0.3266,3.50818 0.9355,1.42999 2.562,2.40808 3.9758,3.48809 0,0 -0.086,-0.0748 0.037,0.487 0.3269,0.17902 0.6538,0.35798 0.9631,0.44104 0,0 -0.096,0.0182 0.2146,0.59382 0.8741,0.57733 1.7481,1.15472 2.7373,1.59631 0,0 -0.1381,-0.11237 -0.2207,0.57233 0.6994,0.51953 1.3989,1.039 1.8865,1.44726 0,0 -0.1073,0.21393 0.1951,0.74585 0.6311,0.50421 1.2621,1.00848 1.907,1.34381 0,0 -0.1692,0.008 0.1471,0.60999 3.3575,3.12927 6.715,6.25854 10.469,9.96252 0.2223,0.0692 0.4445,0.13837 0.6497,0.12604 0,0 -0.081,0.0176 0.04,0.5733 0.3199,0.17206 0.6398,0.34412 0.9504,0.44953 0,0 -0.054,0.0396 0.2422,0.67041 3.0165,3.21588 4.2238,-0.0565 5.8224,-1.65613 0,0 -0.01,0.0784 0.5738,-0.11188 0.493,-0.63385 0.9861,-1.26764 1.4083,-1.89856 0,0 0.01,0.0707 0.5692,-0.23651 0.2344,-0.55109 0.4687,-1.10217 0.5622,-1.72375 0,0 -0.065,0.14355 0.6576,0.29327 0.1318,-0.42511 0.2635,-0.85022 0.2705,-1.29096 0,0 -0.01,0.12543 0.6834,0.24836 0.1655,-0.41156 0.3309,-0.82318 0.2989,-1.19013 0,0 0.051,0.19599 0.7022,0.0843 0.1538,-0.38092 0.3076,-0.76184 0.3542,-0.88574 0,0 0.2567,0.10767 0.8224,-0.24499 2.3067,-2.78608 4.6133,-5.57221 7.546,-8.90143 3.1609,-3.08814 6.3217,-6.17621 10.0946,-9.1966 0.2474,-0.31988 0.4949,-0.63977 1.1131,-1.0216 0.2515,-0.13684 0.3613,-0.34748 0.8447,-0.93897 0.1842,-0.33941 0.3683,-0.67883 0.4462,-0.96734 m -111.9928,195.94968 c 0,0 -0.087,0.003 0.013,0.57367 0.3284,0.172 0.6568,0.34399 0.8751,0.41217 0,0 -0.1045,0.1095 0.1073,0.77295 0.7807,1.40747 1.5613,2.815 2.537,5.01282 0.4958,2.69214 0.9917,5.38427 1.3715,7.44653 -9.4514,0 -18.3689,-0.23724 -27.2655,0.0911 -5.1389,0.1897 -10.2441,1.29175 -16.219,2.42713 -3.5205,1.15057 -7.0411,2.30121 -11.2115,3.45892 -1.7628,1.25446 -3.5256,2.50891 -5.2231,3.7826 0,0 -0.017,-0.066 -0.6396,0.20202 -8.4233,7.99707 -9.9466,17.82282 -7.3355,28.59815 0.4549,1.87768 1.9311,3.50805 3.0222,5.90399 0.3904,0.45752 0.7808,0.91504 1.3444,2.06103 0.4482,1.19007 0.6249,2.6015 1.3868,3.53571 7.2648,8.90753 28.296,13.51495 39.8041,8.76629 0,0 0.3469,-0.0744 0.9283,0.13172 4.8977,-2.40173 9.7953,-4.80353 15.1992,-7.35217 0.4435,-0.53138 0.8871,-1.06275 1.9502,-1.88886 0.4632,-0.97656 0.9263,-1.95319 1.357,-2.94098 0,0 0.012,0.0323 0.6547,-0.15051 0.6351,-0.36389 1.2701,-0.72778 2.3554,-1.34961 0,4.3717 0,8.29828 0,12.21735 8.5509,0 16.7494,0 24.7479,0 0,-12.03565 0.09,-23.69538 -0.027,-35.35309 -0.1052,-10.49005 0.1054,-21.02655 -0.8274,-31.45276 -0.8811,-9.84833 -4.7277,-18.62323 -13.7622,-24.05408 0,0 0.077,-0.0107 -0.3149,-0.58673 -6.6073,-2.03986 -13.2146,-4.07971 -20.7029,-6.25806 -5.3461,0.28986 -10.6922,0.57972 -16.4877,0.19001 -8.0268,1.8916 -16.2309,3.24707 -24.0304,5.82605 -7.759,2.56549 -7.5808,3.10455 -6.6845,12.10827 0.9935,2.4765 -2.1581,7.56232 4.9959,6.76837 7.682,-1.36554 15.3639,-2.73114 23.978,-3.88745 6.7036,0.70063 13.4072,1.40125 20.0873,2.00995 0,0 -0.092,0.0251 0.3004,0.51489 0.8803,0.55396 1.7605,1.10798 2.7332,1.56147 0,0 -0.1003,-0.0928 -0.01,0.48303 0.3299,0.16846 0.6599,0.33691 0.9871,0.41815 m 13.0005,-173.99457 c 0,0 0.085,-2.4e-4 -0.081,-0.531 -0.3086,-0.18543 -0.6172,-0.37091 -0.9065,-0.47663 0,0 0.08,-0.0198 -0.1642,-0.56921 -0.6082,-0.50598 -1.2164,-1.01202 -1.8253,-1.44696 0,0 0.071,-0.002 -0.1727,-0.55469 -0.6084,-0.50537 -1.2168,-1.01074 -1.8277,-1.44482 0,0 0.071,7.9e-4 -0.1735,-0.54932 -0.6075,-0.50702 -1.215,-1.01398 -1.8439,-1.44134 0,0 0.08,0.0211 -0.087,-0.50959 -0.3077,-0.18731 -0.6153,-0.37463 -0.8948,-0.48779 0,0 0.074,-0.0288 -0.1993,-0.66583 -0.5834,-0.19556 -1.1668,-0.39118 -1.7561,-0.39392 0,0 0.193,8.5e-4 0.4942,-0.64972 -0.5118,-0.45728 -1.0237,-0.91455 -1.5376,-1.30261 0,0 0.069,-0.006 -0.1694,-0.55976 -0.6104,-0.50317 -1.2209,-1.00641 -1.8342,-1.43847 0,0 0.071,0.001 -0.1769,-0.547 -0.6089,-0.51068 -1.2178,-1.02136 -1.8248,-1.4527 0,0 0.079,-0.003 -0.1339,-0.46796 -0.2807,-0.1762 -0.5614,-0.35241 -1.1308,-1.13293 -4.3821,-4.28375 -8.7642,-8.56751 -13.2141,-12.85822 0,0 0,0.0679 -0.2552,-0.44397 -0.3138,-0.20581 -0.6276,-0.41168 -0.8845,-0.55316 0,0 0.046,-0.0724 -0.3007,-0.61938 -3.6989,-2.99829 -7.3978,-5.99664 -11.319,-9.64057 -0.1716,-0.14953 -0.3433,-0.29907 -0.515,-0.65002 0,0 0.3075,0.006 0.3075,0.006 0,0 -0.2825,0.20483 -0.6828,-0.44879 -3.9916,-4.03717 -7.9832,-8.07428 -11.8899,-12.69873 -0.3227,-0.1897 -0.6454,-0.3794 -0.9732,-0.49811 0,0 0.071,0.003 -0.04,-0.55756 -0.3215,-0.17114 -0.6431,-0.34228 -0.9657,-0.43725 0,0 0.076,-2.5e-4 -0.034,-0.56256 -0.3227,-0.17102 -0.6455,-0.34204 -0.9751,-0.42987 0,0 0.083,0.006 -0.047,-0.59375 -0.3198,-0.25 -0.6396,-0.49994 -1.0125,-1.09394 -0.1356,-0.22638 -0.3342,-0.32217 -0.8944,-0.82791 -0.347,-0.18689 -0.6941,-0.37378 -1.0348,-0.49335 0,0 0.064,-0.0201 -0.1058,-0.60604 -0.6119,-0.51969 -1.2238,-1.03937 -1.8912,-1.44385 0,0 0.1162,0.0533 -0.03,-0.50412 -0.3266,-0.17264 -0.6532,-0.34525 -0.9789,-0.44037 0,0 0.077,-0.002 -0.046,-0.5546 -0.3181,-0.17385 -0.6362,-0.34771 -0.9597,-0.44058 0,0 0.081,0.005 -0.056,-0.58145 -0.3176,-0.24005 -0.6352,-0.4801 -0.9983,-1.09842 -0.1203,-0.26648 -0.3263,-0.3894 -0.9142,-0.88748 -0.3464,-0.17181 -0.6929,-0.34363 -1.0328,-0.42844 0,0 0.087,-0.007 -0.029,-0.60891 -0.3219,-0.24683 -0.6438,-0.49369 -1.025,-1.09879 -0.1395,-0.23724 -0.3458,-0.33896 -0.936,-0.81979 -0.341,-0.18396 -0.682,-0.36792 -0.9971,-0.45304 0,0 0.099,-0.0255 -0.029,-0.59484 -0.3262,-0.1825 -0.6523,-0.365 -0.9121,-0.44605 0,0 0.1003,-0.0682 -0.1681,-0.61224 -0.5201,-0.27558 -1.0403,-0.55115 -1.6431,-0.71012 0,0 0.1262,0.0671 0.1312,-0.56723 -0.3591,-0.17441 -0.7183,-0.34878 -1.1375,-0.42154 0,0 0.1101,0.0427 0,-0.63504 -0.3854,-0.0901 -0.7709,-0.18033 -0.7745,-0.28933 0,0 -0.01,-0.38211 -0.2735,-0.84391 -0.5315,-0.45495 -1.063,-0.90991 -1.9737,-1.37048 0,0 -0.016,0.37894 0.1793,-0.29385 -0.3903,-0.20026 -0.7807,-0.40052 -1.2202,-0.46762 0,0 0.1377,0.0343 0.096,-0.6334 -0.39,-0.14068 -0.7801,-0.2814 -0.8459,-0.36807 0,0 0.057,-0.32361 -0.2681,-0.82275 -0.8669,-0.81183 -1.7338,-1.62366 -2.8982,-2.40415 0,0 0.027,0.29788 0.025,-0.35583 -0.3679,-0.19684 -0.7359,-0.39368 -0.9542,-0.42639 0,0 0.1545,-0.15955 -0.1556,-0.65891 -0.7492,-0.60556 -1.4984,-1.21112 -2.711,-2.42413 -0.1472,-0.29453 -0.2523,-0.62335 -0.4556,-0.87198 -0.1469,-0.17966 -0.4242,-0.25263 -1.0111,-0.57544 0,2.79748 0,5.36322 -0.2477,8.67309 -0.017,4.66419 -0.034,9.32837 -0.2356,14.78287 0.018,1.07581 0.036,2.15158 -0.2522,4.12287 -1.6691,7.77218 -0.2321,14.39334 6.9839,18.88205 0.4143,0.25775 0.7858,0.58447 1.4669,0.42498 -0.093,0.15015 -0.186,0.3003 -2e-4,0.90631 0.3047,0.17621 0.6095,0.35248 1.1376,0.35669 0,0 -0.1756,-0.22064 -0.1323,0.4383 0.3777,0.15796 0.7554,0.31592 1.0273,0.29663 0,0 -0.1727,0.11304 -0.03,0.73743 0.3684,0.17309 0.7368,0.34625 0.9192,0.41058 0,0 -0.1016,0.19 0.2076,0.72424 0.9209,0.81476 1.8419,1.62958 2.9134,2.30676 0,0 -0.1461,-0.14215 -0.026,0.49207 0.3549,0.21368 0.7099,0.42731 0.9358,0.49963 0,0 -0.1306,0.13996 0.2134,0.63459 0.6629,0.36871 1.3258,0.73748 2.3173,1.38122 0,0 0.3888,0.18018 0.2389,0.30054 0,0 -0.041,-0.30554 0.2673,0.0911 0.1145,0.12238 0.2289,0.24469 0.4543,1.2038 0.232,0.51306 0.4639,1.02612 0.5895,1.47321 0,0 -0.024,-0.2428 0.7273,0.0753 0.2103,0.17237 0.4206,0.34473 0.7443,0.86219 0.2403,0.27258 0.4805,0.54522 0.8905,1.44 1.1847,0.90936 2.3694,1.81878 3.6397,2.53644 0,0 -0.1982,-0.0694 -0.01,0.54046 0.3639,0.18353 0.7277,0.36701 0.9303,0.35358 0,0 -0.1901,0.16943 0.096,0.71893 0.6168,0.52063 1.2336,1.04126 1.7305,1.55225 0,0 -0.01,0.11999 0.3594,0.65741 9.3268,9.08239 18.6537,18.16473 28.355,27.85168 0.8555,0.72559 1.7109,1.45117 2.7626,2.71186 0.3324,0.14538 0.6648,0.29083 0.857,0.28729 0,0 -0.1506,0.13843 0.082,0.69946 0.3447,0.18842 0.6893,0.37689 1.1002,0.43408 0,0 -0.131,-0.0666 -0.038,0.51618 0.3303,0.1856 0.6606,0.37127 1.0251,0.44238 0,0 -0.1146,-0.0338 -0.01,0.53937 0.3269,0.18445 0.6539,0.36889 1.0084,0.44696 0,0 -0.1063,-0.0278 0.013,0.53723 0.3236,0.18109 0.6473,0.36224 0.9602,0.42163 0,0 -0.1218,0.0103 0.031,0.56927 0.3273,0.17762 0.6546,0.35529 0.9137,0.44837 0,0 -0.084,0.0686 0.1871,0.64783 1.0795,0.96753 2.159,1.93505 3.5676,2.86346 0,0 -0.035,-0.32947 -0.049,0.37042 0.3991,0.14301 0.7981,0.28595 1.1636,0.27155 0,0 -0.1543,0.0459 -0.1479,0.74725 0.3996,0.13141 0.7992,0.26288 0.8294,0.38349 0,0 -0.018,0.36908 0.3122,0.87811 1.0582,0.96905 2.1164,1.93817 3.1848,2.84314 0,0 -0.063,0.0132 0.2606,0.57971 1.4073,1.30176 2.8145,2.60345 4.5046,3.83832 0,0 -0.066,-0.28308 -0.057,0.41247 0.3957,0.14051 0.7914,0.28101 1.1049,0.26624 0,0 -0.1511,0.0895 -0.1164,0.7561 0.3844,0.17499 0.7689,0.34998 0.9266,0.38977 0,0 -0.1286,0.23065 0.1873,0.79731 1.4842,1.50036 2.9684,3.00073 4.9026,4.52392 0,0 0.036,-0.44916 -0.065,0.27478 0.421,0.13538 0.842,0.27075 1.1488,0.25189 0,0 -0.1501,0.11969 -0.079,0.80841 0.3898,0.12592 0.7796,0.2519 1.0665,0.21405 0,0 -0.1587,0.11042 -0.1676,0.75373 0.4549,0.4035 0.9099,0.807 1.376,1.1441 0,0 -0.067,0.008 0.1879,0.5802 0.549,0.25177 1.098,0.50348 1.3375,0.74237 0,0 -0.017,0.30939 0.3406,0.82892 1.7014,1.6405 3.4028,3.28095 5.1372,4.85297 0,0 -0.069,-0.0319 0.08,0.54553 0.3131,0.23956 0.6262,0.47919 1.0186,1.0791 0.1403,0.23731 0.3481,0.34766 0.9727,0.88654 1.0633,0.99237 2.1266,1.98468 3.6194,3.01361 0,0 0.048,-0.42841 -0.1725,0.27844 0.503,0.4892 1.006,0.97839 1.5783,1.83051 0.1402,0.23583 0.3474,0.34954 0.9103,0.86474 0.3351,0.18579 0.6702,0.37152 1.0023,0.48206 0,0 -0.075,0.003 0.057,0.54889 0.3142,0.17663 0.6283,0.35327 0.9439,0.45202 0,0 -0.078,-9.7e-4 0.056,0.54877 0.3166,0.17841 0.6332,0.35675 0.8882,0.45239 0,0 -0.082,0.0623 0.1772,0.64087 0.9455,0.81262 1.8911,1.62525 2.8672,2.37525 0,0 -0.068,0.0152 0.1741,0.56823 0.5191,0.26514 1.0382,0.53034 1.3227,0.84766 0,0 0.042,0.23657 0.3985,0.76013 1.6729,1.32251 3.3458,2.64502 5.0313,3.89191 0,0 -0.074,0.018 0.2355,0.68854 2.3263,1.00109 4.6197,2.76452 6.985,2.86676 8.6202,0.3728 17.2644,0.19067 26.8257,0.34436 18.1518,0.21197 36.3035,0.45898 54.456,0.55957 1.2525,0.007 2.5111,-1.07843 4.3017,-1.92084 1.1006,-1.34912 2.2011,-2.69818 3.938,-4.35449 0.1629,-0.41339 0.3258,-0.82685 0.3862,-1.23279 0,0 0.011,0.10229 0.6321,0.0787 0.1704,-0.36279 0.3409,-0.72564 0.3633,-1.08954 0,0 0,0.14814 0.5953,0.0248 0.1957,-0.34112 0.3915,-0.68225 0.4488,-1.09637 0,0 -0.074,0.13806 0.5154,0.047 0.2393,-0.30921 0.4787,-0.61841 1.1092,-0.99366 0.2575,-0.15356 0.3689,-0.37921 0.8634,-0.97357 0.1754,-0.34625 0.3508,-0.69244 0.4367,-1.03814 0,0 10e-4,0.0895 0.589,-0.0136 0.246,-0.30352 0.4921,-0.60699 1.1327,-0.99926 0.2463,-0.17194 0.3535,-0.40723 0.8521,-1.00104 0.2419,-0.32025 0.4839,-0.64044 1.099,-1.02789 0.2428,-0.14868 0.35,-0.36469 0.8431,-0.95008 0.1874,-0.33758 0.3749,-0.67523 0.48,-1.0122 0,0 3e-4,0.0823 0.5446,-0.0623 0.1806,-0.31445 0.3612,-0.62891 0.4495,-0.94257 0,0 1e-4,0.0923 0.5624,-0.0356 0.1811,-0.32221 0.3622,-0.64447 0.4427,-0.98224 0,0 -0.017,0.10053 0.5544,-0.0305 0.244,-0.2984 0.4879,-0.5968 1.1286,-0.95263 0.2649,-0.14679 0.3845,-0.3711 0.8743,-0.97913 0.1791,-0.33771 0.3583,-0.67541 0.4507,-1.00665 0,0 0.01,0.0867 0.5679,-0.0216 0.171,-0.32623 0.3419,-0.6524 0.4297,-0.98376 0,0 0,0.0833 0.5711,-0.0503 0.2406,-0.30535 0.4811,-0.61071 1.1108,-0.99194 0.2495,-0.15961 0.3603,-0.3869 0.8548,-0.96497 0.1804,-0.33581 0.3608,-0.67156 0.4419,-0.9953 0,0 0.011,0.0994 0.5705,-0.0341 0.1776,-0.32319 0.3553,-0.64637 0.4367,-0.8833 0,0 0.086,0.0966 0.649,-0.1388 0.4956,-0.63214 0.9912,-1.26434 1.4036,-1.94733 0,0 -0.05,0.0835 0.5264,-0.0596 0.242,-0.3095 0.4841,-0.61895 1.2533,-1.12469 0.7282,-0.83783 1.4563,-1.6756 2.726,-2.81122 0.2455,-0.32519 0.4909,-0.65039 1.1425,-1.04822 0.2651,-0.16003 0.3836,-0.39422 0.8807,-0.98047 0.2341,-0.31488 0.4683,-0.62976 1.0926,-1.01586 0.2581,-0.14875 0.3762,-0.37165 0.8695,-0.96021 0.1833,-0.33337 0.3667,-0.66675 0.4666,-0.99512 0,0 0,0.0836 0.5484,-0.0569 0.1787,-0.31409 0.3573,-0.62824 0.4535,-0.94275 0,0 1e-4,0.0825 0.5466,-0.0571 0.1795,-0.31518 0.359,-0.63031 0.4512,-0.89789 0,0 0.048,0.087 0.6132,-0.14544 0.5228,-0.6106 1.0455,-1.22126 1.4621,-1.91462 0,0 -0.083,0.10578 0.4782,-0.0217 0.1769,-0.32367 0.3538,-0.64734 0.4374,-0.87531 0,0 0.095,0.0938 0.6778,-0.14905 0.542,-0.64013 1.084,-1.28027 2.1162,-2.08013 0.4191,-0.52717 0.8382,-1.05433 1.764,-1.87446 0.1767,-0.33245 0.3535,-0.66491 0.4383,-0.91131 0,0 0.086,0.0925 0.644,-0.15412 0.514,-0.6134 1.0281,-1.22674 1.4523,-1.92657 0,0 -0.087,0.0896 0.4788,-0.0302 0.1802,-0.32379 0.3605,-0.64752 0.4395,-0.9867 0,0 -0.017,0.10114 0.5513,-0.0303 0.2382,-0.30121 0.4763,-0.60248 1.1142,-0.98175 0.2641,-0.15167 0.3883,-0.37964 0.97,-1.07739 0.2076,-0.59845 0.4152,-1.1969 0.4762,-1.7898 0,0 0.014,0.146 0.7806,0.34351 0.1106,-0.4494 0.2212,-0.8988 0.2007,-1.35578 0,0 -8e-4,0.13135 0.7525,0.30292 0.1278,-0.42682 0.2556,-0.8537 0.2527,-1.11218 0,0 0.1704,0.12811 0.8172,0.19537 0.4173,-0.46252 0.8345,-0.92498 1.1401,-1.43493 0,0 -0.045,0.11279 0.5113,-0.0474 0.1726,-0.33142 0.3452,-0.6629 0.4425,-0.97192 0,0 0.023,0.075 0.5761,-0.15393 0.4995,-0.61249 0.9989,-1.22498 1.4247,-1.85523 0,0 -0.017,0.0738 0.5186,-0.083 0.1853,-0.3097 0.3705,-0.61939 0.4808,-0.90686 0,0 0.023,0.0746 0.578,-0.15528 0.5004,-0.60986 1.0009,-1.21966 1.4303,-1.84607 0,0 -0.015,0.0713 0.5268,-0.0701 0.1787,-0.31286 0.3573,-0.62567 0.4622,-0.94012 0,0 -0.001,0.0738 0.542,-0.0666 0.1797,-0.31342 0.3594,-0.62683 0.4503,-0.94611 0,0 -0.01,0.0886 0.5399,-0.0575 0.1824,-0.31531 0.3649,-0.63062 0.4507,-0.95063 0,0 -0.01,0.0966 0.5666,-0.0607 0.2444,-0.30774 0.4887,-0.61548 1.1001,-0.9903 0.2434,-0.13965 0.354,-0.34937 0.8614,-0.97815 0.5233,-0.63989 1.0465,-1.27978 1.5022,-1.92731 0,0 0.025,0.0634 0.6212,-0.15905 0.2358,-0.5539 0.4716,-1.10785 0.579,-1.51758 0,0 0.1508,0.12054 0.7809,0.12158 0.3796,-0.47766 0.7592,-0.95532 1.0224,-1.46997 0,0 -0.036,0.11664 0.5126,-0.055 0.1853,-0.32087 0.3705,-0.64179 0.46,-0.92975 0,0 0.033,0.0956 0.572,-0.1742 0.507,-0.60638 1.0141,-1.21283 1.4529,-1.82342 0,0 0.01,0.0679 0.595,-0.17383 0.2411,-0.54718 0.4823,-1.09442 0.75,-1.34461 0,0 0.2976,-0.0189 0.7599,-0.28979 0.4184,-0.54474 0.8368,-1.08948 1.319,-1.86127 0,0 -0.2233,-0.0757 0.4578,0.0442 0.7598,-0.80926 1.5197,-1.61853 2.6854,-2.531 0.2514,-0.16285 0.3968,-0.39276 0.9267,-0.90961 0.3332,-0.41296 0.6663,-0.82593 1.0533,-1.29291 0,0 -0.02,-0.0734 0.7606,-0.50006 21.3461,-0.0472 42.6922,-0.0946 64.0382,-0.1413 1.37,-0.003 2.7399,-4.2e-4 4.6759,-4.2e-4 -1.2493,1.74945 -2.0004,2.80127 -3.0018,3.8374 -0.1808,0.0908 -0.2405,0.2326 -0.7475,0.78473 -0.5456,0.69867 -1.0914,1.39734 -1.5478,2.1203 0,0 -0.029,-0.0877 -0.6064,0.20148 -1.1386,1.26934 -2.2771,2.53869 -3.3035,3.86828 0,0 -0.066,-0.10876 -0.6,0.12799 -0.3839,0.62403 -0.7678,1.24805 -1.4074,2.46698 -0.9517,0.86011 -1.9034,1.72028 -3.5199,2.59754 -1.5249,1.58844 -3.0498,3.17682 -4.4601,4.88452 0,0 0.1158,-0.1181 -0.4693,0.0484 -0.1812,0.34509 -0.3625,0.69025 -0.4159,1.06744 0,0 0.033,-0.12768 -0.5504,-0.033 -0.1692,0.33448 -0.3382,0.66901 -0.3695,0.9386 0,0 -0.064,-0.13818 -0.6563,0.0207 -0.2016,0.33972 -0.4031,0.67951 -0.4382,1.05243 0,0 0.032,-0.16675 -0.5543,-0.0356 -0.183,0.34375 -0.3658,0.68744 -0.425,1.07141 0,0 0.041,-0.12329 -0.5398,0.004 -0.2454,0.30298 -0.4908,0.6059 -1.1408,0.99982 -0.2495,0.17401 -0.3675,0.41302 -0.8863,0.96332 -0.1687,0.33422 -0.3374,0.66839 -0.4117,0.88995 0,0 -0.113,-0.0941 -0.7055,0.21637 -0.2165,0.57623 -0.433,1.15253 -0.4551,1.79279 0,0 0.055,-0.1969 -0.6085,-0.42457 -0.4358,0.495 -0.8716,0.98993 -1.2398,1.50513 0,0 0.017,-0.0685 -0.5233,0.0776 -0.1809,0.31219 -0.3617,0.62439 -0.4715,0.91882 0,0 -0.019,-0.0708 -0.5775,0.14825 -0.4945,0.62031 -0.9892,1.24061 -1.4176,1.86261 0,0 -0.012,-0.0651 -0.5857,0.20856 -0.9743,1.08618 -1.9486,2.17237 -2.8686,3.6059 0,0 0.3484,-0.0478 -0.3421,-0.0997 -0.1416,0.40417 -0.2831,0.80835 -0.3701,0.89331 0,0 -0.3185,-0.0591 -0.7644,0.21478 -0.3188,0.4068 -0.6377,0.81366 -1.5923,1.59674 -0.8598,1.00159 -1.7196,2.00311 -3.0726,3.57922 13.5308,0 26.0567,0.0159 38.5824,-0.0416 0.7079,-0.003 1.413,-0.60742 2.5775,-1.01715 0.3063,-0.16882 0.4503,-0.42792 0.9696,-1.07416 0.5214,-0.6109 1.0429,-1.2218 1.4859,-1.86078 0,0 -0.027,0.0787 0.5097,-0.0895 0.1865,-0.30579 0.373,-0.61164 0.4616,-0.90534 0,0 0.011,0.098 0.5746,-0.0317 0.1756,-0.32696 0.3511,-0.65393 0.4314,-0.91308 0,0 0.068,0.0956 0.6235,-0.16047 0.5135,-0.6145 1.0271,-1.22894 1.4467,-1.83624 0,0 0.012,0.0935 0.5515,-0.12066 0.1168,-0.154 0.2337,-0.30805 0.8173,-0.75843 0.611,-0.67749 1.222,-1.35504 2.332,-2.16485 0.1969,-0.27509 0.3938,-0.55017 1.1386,-1.13886 1.0611,-1.61725 2.1221,-3.23443 4.1011,-5.20019 0.2349,-0.22779 0.4699,-0.45563 0.8303,-0.59369 0,0 0.3611,-0.20465 0.7891,-0.66071 0.1413,-0.15332 0.2826,-0.30664 1.0911,-0.51721 2.5966,-2.45276 5.1933,-4.90552 7.7352,-7.61755 0,0 -0.2592,0.0554 0.3939,-0.008 0.1685,-0.37775 0.337,-0.75556 0.3947,-0.89124 0,0 0.2438,0.107 0.8057,-0.22485 1.6888,-1.70416 3.3775,-3.40833 4.9966,-5.15631 0,0 -0.043,0.0702 0.4836,-0.0951 0.1843,-0.30584 0.3685,-0.61169 0.4921,-0.88513 0,0 0.039,0.0566 0.6383,-0.14538 0.8543,-0.91431 1.7087,-1.82862 2.4695,-2.74909 0,0 0,0.0937 0.5604,-0.16321 0.5029,-0.62738 1.0058,-1.2547 1.4215,-1.96991 0,0 -0.088,0.0875 0.4846,-0.0106 0.1843,-0.32397 0.3686,-0.64794 0.4519,-1.00372 0,0 -0.031,0.10108 0.5405,-0.001 0.1784,-0.32434 0.3567,-0.64874 0.4049,-0.93799 0,0 0.036,0.12976 0.614,-0.0219 0.2156,-0.32324 0.4311,-0.64648 1.2303,-1.30603 1.4345,-1.49445 2.8134,-3.04736 4.3136,-4.4726 4.8073,-4.56701 9.6596,-9.08673 14.4671,-13.599 -7.8592,-7.46081 -14.7816,-14.03216 -21.6309,-21.18768 -0.315,-0.21087 -0.63,-0.42169 -1.0015,-0.52167 0,0 0.1107,0.057 -0.01,-0.50286 -0.3212,-0.17475 -0.6424,-0.34943 -0.9548,-0.43036 0,0 0.094,-0.009 -0.04,-0.56879 -0.3231,-0.17535 -0.6461,-0.35071 -0.9575,-0.42963 0,0 0.096,-0.0122 -0.041,-0.56988 -0.3229,-0.17475 -0.6458,-0.34943 -0.9675,-0.44092 0,0 0.083,-0.002 -0.039,-0.56055 -0.3219,-0.17419 -0.6438,-0.34832 -0.9637,-0.43463 0,0 0.088,-0.002 -0.034,-0.56152 -0.3218,-0.17505 -0.6436,-0.35004 -0.9404,-0.42481 0,0 0.1002,-0.0254 -0.038,-0.59198 -0.3283,-0.17517 -0.6566,-0.3504 -0.9963,-0.43646 0,0 0.089,0.0108 -0.042,-0.53973 -0.3169,-0.17652 -0.6338,-0.35303 -0.9499,-0.44821 0,0 0.081,-10e-4 -0.05,-0.55118 -0.3167,-0.177 -0.6333,-0.35401 -0.9501,-0.44913 0,0 0.082,-3.3e-4 -0.05,-0.55048 -0.3168,-0.17712 -0.6337,-0.35424 -0.8807,-0.44717 0,0 0.084,-0.0701 -0.1545,-0.62784 -0.624,-0.50009 -1.2481,-1.00015 -1.8723,-1.41852 0,0 0.082,-0.003 -0.1872,-0.57415 -0.5437,-0.26892 -1.0873,-0.53788 -1.6631,-0.599 0,0 0.2097,0.0164 0.2344,-0.63788 -0.4542,-0.4303 -0.9084,-0.86063 -1.3634,-1.20606 0,0 0.085,-0.004 -0.1638,-0.55249 -0.6236,-0.49585 -1.2472,-0.99169 -1.8707,-1.41659 0,0 0.071,-0.006 -0.1999,-0.58661 -0.5672,-0.22568 -1.1344,-0.45135 -1.7087,-0.5231 0,0 0.154,-0.003 0.1871,-0.69644 -0.4002,-0.13813 -0.8004,-0.27628 -1.1699,-0.26026 0,0 0.1523,-0.0392 0.1743,-0.72961 -0.398,-0.15811 -0.7962,-0.31619 -1.1377,-0.27515 0,0 0.1964,-0.0656 0.1181,-0.74725 -0.3837,-0.15054 -0.7674,-0.30106 -1.146,-0.28183 0,0 0.1692,-0.0158 0.2236,-0.6626 -0.4612,-0.41467 -0.9225,-0.82934 -1.3883,-1.1879 0,0 0.056,-0.007 -0.2451,-0.57074 -1.0923,-0.98123 -2.1846,-1.96243 -3.6528,-2.68698 0,0 0.3947,-0.22656 0.06,-0.7644 -1.2185,-1.16019 -2.437,-2.32034 -3.9643,-3.39853 0,0 0.08,0.30945 0.092,-0.39145 -0.4002,-0.1467 -0.8003,-0.29339 -1.1723,-0.27096 0,0 0.168,-0.034 0.1546,-0.73014 -0.4038,-0.1235 -0.8076,-0.24698 -0.9618,-0.19696 0,0 0.176,-0.24783 -0.033,-0.84747 -0.3627,-0.18283 -0.7254,-0.36566 -1.1777,-0.35697 0,0 0.1948,0.0823 0.1626,-0.5881 -0.3807,-0.16595 -0.7615,-0.33191 -0.8437,-0.40555 0,0 0.093,-0.29812 -0.266,-0.86169 -3.4735,-4.75992 -7.9456,-6.38236 -13.971,-6.0622 -10.2203,0.543 -20.492,0.10736 -30.742,0.11365 -0.9878,6.1e-4 -1.9755,0.21646 -3.0965,0.34802 2.3894,2.16883 4.448,4.03727 6.6333,5.79837 0,0 -0.1086,-0.1257 0.011,0.46567 0.333,0.20041 0.666,0.40082 1.031,0.43741 0,0 -0.1641,-0.0305 -0.034,0.56046 0.339,0.18978 0.6779,0.3796 1.0058,0.39678 0,0 -0.1725,0.0123 -0.016,0.60517 0.3405,0.19174 0.6811,0.38351 0.969,0.38284 0,0 -0.192,0.0543 0,0.64496 0.3507,0.18372 0.7014,0.36743 0.9961,0.36069 0,0 -0.1899,0.0581 0,0.64856 0.3439,0.20742 0.6879,0.41488 1.0756,0.42044 0,0 -0.2024,-0.0415 -0.058,0.55957 0.3486,0.18405 0.6973,0.36807 0.8932,0.45395 0,0 -0.096,0.1539 0.2336,0.68231 0.9624,0.77417 1.9248,1.54834 2.9215,2.26431 0,0 -0.064,-0.0211 0.074,0.51752 0.31,0.17911 0.6199,0.35821 0.9269,0.46622 0,0 -0.071,0.004 0.039,0.56359 0.321,0.17154 0.6422,0.34308 0.97,0.43662 0,0 -0.078,-0.006 0.047,0.54471 0.3163,0.17642 0.6326,0.35284 0.9455,0.45257 0,0 -0.077,0.004 0.036,0.56601 0.3229,0.17154 0.6457,0.34308 0.92,0.44193 0,0 -0.072,0.0498 0.1817,0.62991 0.9343,0.82691 1.8687,1.65378 2.8576,2.41687 0,0 -0.065,-0.0535 0.071,0.48901 0.3129,0.17698 0.6258,0.35395 0.8953,0.45878 0,0 -0.072,0.0444 0.1476,0.6065 0.6245,0.48929 1.2489,0.97855 1.8815,1.40103 0,0 -0.065,0.0189 0.1684,0.60816 0.8358,0.61462 1.6716,1.22925 2.6616,1.7026 0,0 -0.1484,-0.1473 -0.1053,0.53089 0.3896,0.14316 0.7792,0.28628 0.8147,0.39328 0,0 -0.042,0.35348 0.3189,0.87652 1.5551,1.46177 3.1101,2.92356 4.9533,4.30252 0,0 -0.081,-0.28857 -0.024,0.39032 0.3908,0.1178 0.7817,0.23554 0.8926,0.32941 0,0 -0.029,0.2793 0.2936,0.84271 2.0223,1.69934 4.0446,3.39862 6.3373,5.43476 0.1996,0.21002 0.4229,0.3908 0.7381,1.23584 1.2122,1.2268 2.4924,2.39831 3.5755,3.7301 0.2004,0.24628 -0.3948,1.13953 -1.5513,1.61963 -27.5307,-0.0154 -55.0614,-0.0464 -82.5921,-0.004 -1.5141,0.002 -3.0273,0.61346 -4.4786,0.96716 0,0 -0.01,-0.067 -0.555,0.16651 -0.4845,0.62097 -0.969,1.24194 -1.4015,1.81939 0,0 -0.045,-0.0504 -0.5634,0.21344 -0.3526,0.4632 -0.7052,0.92639 -1.0733,1.30561 0,0 -0.084,0.0122 -0.592,0.37719 -1.7696,1.82154 -3.5392,3.64307 -5.4284,5.47943 0,0 -0.035,0.11542 -0.5795,0.40155 -1.096,1.20789 -2.192,2.41571 -3.2836,3.71412 0,0 0.09,-0.009 -0.4484,0.22796 -0.1998,0.32892 -0.3996,0.65778 -0.5304,0.88623 0,0 -0.1098,-0.0525 -0.5927,0.27649 -0.8052,0.83991 -1.6103,1.67987 -2.4225,2.71259 0,0 0.1926,0.0107 -0.3944,0.11816 -0.2209,0.32172 -0.4417,0.64343 -0.6045,0.87482 0,0 -0.099,-0.042 -0.6299,0.32391 -2.3192,2.36438 -4.6384,4.7287 -6.8953,7.11139 0,0 -0.013,-0.0637 -0.6118,0.17108 -1.289,1.34516 -2.578,2.69037 -4.0498,4.12488 0,0 0.042,0.1991 -0.382,0.38654 -0.2904,0.17541 -0.4388,0.43255 -0.5993,0.67785 0,0 -0.125,0.12952 -0.5831,0.47431 -0.6208,0.7088 -1.2416,1.41754 -1.791,2.16491 0,0 0.038,-0.072 -0.4977,0.0913 -0.1875,0.3103 -0.3749,0.62061 -0.4836,0.89758 0,0 -0.034,-0.0783 -0.6288,0.22565 -1.9544,2.06421 -3.9088,4.12842 -5.9489,6.21356 0,0 -0.024,0.0848 -0.5486,0.45838 -2.4277,2.57446 -4.8553,5.14898 -7.1708,7.77514 0,0 0.028,-0.12017 -0.4492,0.0792 -0.2826,0.4154 -0.5652,0.83081 -1.4379,1.64251 -2.2663,2.55628 -4.5326,5.11261 -7.3833,7.61322 -0.1851,0.32514 -0.3701,0.65021 -0.4668,1.00647 0,0 0.03,-0.0888 -0.5517,0.006 -0.185,0.32764 -0.3701,0.65522 -0.4417,1.02155 0,0 0.038,-0.11371 -0.5539,-0.0204 -0.198,0.33032 -0.3961,0.66059 -0.4405,1.02606 0,0 0.035,-0.1535 -0.5473,-0.0389 -0.1693,0.3399 -0.3387,0.67987 -0.3786,0.96948 0,0 -0.049,-0.12989 -0.6192,0.0321 -0.1721,0.33502 -0.3441,0.66999 -0.4256,0.99945 0,0 -0.01,-0.0904 -0.5787,0.0144 -0.1698,0.33026 -0.3396,0.66052 -0.4199,0.98321 0,0 -0.01,-0.0893 -0.5803,0.0139 -0.1685,0.33142 -0.3369,0.66278 -0.4203,0.9978 0,0 0,-0.0851 -0.5677,0.0337 -0.1848,0.3219 -0.3695,0.6438 -0.4209,0.95429 0,0 -0.012,-0.13337 -0.5841,0.0125 -0.1718,0.33374 -0.3436,0.66748 -0.4341,0.87829 0,0 -0.1226,-0.0819 -0.6639,0.1778 -0.5177,0.59943 -1.0355,1.19879 -1.4612,1.94928 0,0 0.1521,-0.0904 -0.4563,-0.01 -0.2605,0.30615 -0.5209,0.6123 -1.1722,0.95514 -0.2718,0.12866 -0.3955,0.34283 -0.8009,0.87353 0,0 -0.317,0.37091 -0.8628,0.73786 -1.7954,1.71588 -3.8537,3.23327 -5.3309,5.18945 -2.9722,3.93616 -6.6018,5.01214 -11.5207,4.85577 -12.5737,-0.39984 -25.169,-0.11438 -38.4448,-0.23388 -0.6977,0.0285 -1.3953,0.0571 -3.0042,-0.23334 -2.1348,-0.0508 -4.306,-0.37866 -6.398,-0.10346 -8.3739,1.10163 -15.3785,-1.00579 -20.8265,-8.63281 -0.6647,-0.49988 -1.3295,-0.99982 -2.0315,-1.43243 0,0 0.068,0.0362 -0.075,-0.50812 -0.3138,-0.18085 -0.6277,-0.36176 -0.9477,-0.45801 0,0 0.084,0.007 -0.079,-0.5553 -0.3122,-0.22699 -0.6243,-0.45404 -1.0143,-1.06604 -0.149,-0.25091 -0.3693,-0.37115 -0.9406,-0.9143 -0.3247,-0.25092 -0.6493,-0.50177 -1.0419,-1.12744 -0.1468,-0.24677 -0.3629,-0.35541 -0.9565,-0.82618 -0.3259,-0.19494 -0.6519,-0.38983 -0.9635,-0.49505 0,0 0.09,-0.0134 -0.061,-0.55188 -0.3107,-0.18317 -0.6214,-0.36634 -0.9256,-0.47174 0,0 0.078,-0.007 -0.053,-0.55213 -0.3135,-0.17669 -0.6269,-0.35333 -0.9405,-0.45855 0,0 0.072,-0.001 -0.06,-0.54596 -0.3142,-0.17463 -0.6284,-0.34925 -0.9465,-0.44904 0,0 0.075,0.003 -0.072,-0.53442 -0.3111,-0.17896 -0.6222,-0.35791 -0.9338,-0.45844 0,0 0.078,0 -0.064,-0.54101 -0.3125,-0.17884 -0.6251,-0.35761 -0.8975,-0.47028 0,0 0.065,-0.0413 -0.1392,-0.6402 -0.9544,-0.8103 -1.9087,-1.6206 -2.887,-2.36487 0,0 0.067,0.0195 -0.078,-0.52032 -0.3114,-0.18054 -0.6229,-0.36108 -0.9354,-0.46301 0,0 0.079,6.1e-4 -0.068,-0.53681 -0.3105,-0.18036 -0.621,-0.36078 -0.9279,-0.46344 0,0 0.078,-0.004 -0.059,-0.54669 -0.3128,-0.17773 -0.6255,-0.35553 -0.9379,-0.45911 0,0 0.074,-0.001 -0.063,-0.54272 -0.3122,-0.17773 -0.6244,-0.35547 -0.9255,-0.46576 0,0 0.064,-0.0231 -0.2263,-0.66601 -0.569,-0.20105 -1.1381,-0.40217 -1.7189,-0.40613 0,0 0.1974,0.005 0.505,-0.67456 -0.5259,-0.51215 -1.0518,-1.02423 -1.6461,-1.90979 -0.1455,-0.24634 -0.3606,-0.35523 -0.9555,-0.83094 -0.3305,-0.19049 -0.661,-0.38098 -0.9387,-0.48565 0,0 0.086,-0.0532 -0.1423,-0.61554 -0.6222,-0.49329 -1.2445,-0.98657 -1.8776,-1.41352 0,0 0.066,-0.0126 -0.138,-0.57873 -0.6224,-0.49628 -1.2447,-0.99255 -1.8836,-1.4032 0,0 0.086,0.0162 -0.08,-0.51636 -0.3088,-0.18664 -0.6175,-0.37329 -0.9255,-0.47467 m -216.1932,303.31097 c 0.1197,-0.42645 0.2394,-0.85296 0.3,-1.17956 0,0 0.1043,0.0509 0.765,-0.23981 0.1097,-3.35675 0.2193,-6.71356 0.3436,-9.92407 0,0 0.141,-0.0414 0.1589,-0.72107 -0.4024,-0.4845 -0.8047,-0.96906 -1.2348,-1.32758 0,0 0.129,-10e-4 0.062,-0.67285 -0.3726,-0.14081 -0.7452,-0.28155 -1.1246,-0.31036 0,0 0.1117,-0.0103 0.1868,-0.69586 -0.3905,-0.13953 -0.7811,-0.27906 -0.947,-0.39051 0,0 0.04,-0.22271 -0.2836,-0.80902 -1.6739,-0.62109 -3.3479,-1.24213 -5.9398,-2.04968 -4.9268,0 -9.8537,0 -14.9126,0 0,11.21838 0,21.95459 0,33.48114 2.1202,-0.61609 3.9329,-1.14282 5.8943,-2.24793 -0.06,-0.38983 -0.1198,-0.7796 -0.096,-2.03845 -0.038,-1.737 -0.076,-3.474 0.058,-5.67932 0,0 0.015,-0.49872 0.8937,-0.68109 5.0199,-0.2229 10.3742,0.93207 14.3449,-3.66711 0,0 -0.1781,0.0262 0.5473,0.15466 0.1308,-0.41199 0.2616,-0.82392 0.2705,-1.24536 0,0 0.012,0.12164 0.7137,0.24383 m 238.2158,-15.91443 c -0.3279,-0.18432 -0.6558,-0.36865 -0.9578,-0.46008 0,0 0.092,-0.0297 -0.1978,-0.52216 -1.622,-0.42834 -3.244,-0.85668 -5.7115,-1.39593 -4.717,0.3808 -9.4341,0.76166 -14.8179,0.81415 -0.2619,-0.094 -0.5189,-0.22949 -0.7882,-0.26197 -0.1101,-0.0133 -0.3561,0.19611 -0.3562,0.30451 -0.017,10.66766 -0.015,21.33527 -0.015,32.27612 2.3541,-0.11487 4.0742,-0.19879 5.9442,-0.29004 0,-2.90454 -0.1878,-5.38983 0.084,-7.82397 0.1253,-1.12384 1.1478,-2.14765 2.5651,-3.06732 6.6781,-0.521 7.4838,5.83899 11.0327,9.79205 1.672,-0.0796 3.3441,-0.15924 5.0161,-0.23883 -0.2148,-1.24762 -0.4296,-2.49518 -0.6546,-3.65723 0,0 0.086,-1.8e-4 -0.105,-0.60351 -0.6538,-0.80579 -1.3075,-1.61151 -1.9631,-2.33448 0,0 0.083,-0.004 -0.096,-0.55609 -0.4895,-0.58288 -0.979,-1.16571 -1.3327,-1.90435 0,0 -0.1307,-0.15998 -0.2978,-0.39869 0,0 -0.2705,-0.10821 -0.3667,-0.73425 0.054,-0.41711 0.1075,-0.83423 0.7876,-1.39349 1.2275,-1.09998 2.455,-2.19995 3.8112,-3.55872 0,0 -0.2468,-0.15033 0.4254,-0.41717 2.5891,-4.26331 2.9013,-8.35572 -0.9971,-12.06672 0,0 0.072,0.0859 -0.039,-0.47222 -0.3197,-0.1731 -0.6394,-0.34613 -0.9344,-0.43146 0,0 0.087,-0.0256 -0.034,-0.59815 m 121.119,4.6175 c 0,0 -0.081,0.18304 0.579,0.30285 0.4959,-0.41247 0.9918,-0.82489 1.3411,-1.23419 0,0 0.01,0.14624 0.498,0.0628 0.4416,-0.51166 0.8832,-1.02338 2.2689,-1.93641 1.7004,-0.0417 3.4009,-0.0834 5.3153,0.51014 0.6361,0.14593 1.2721,0.29187 2.0554,0.56036 0,0 0.1334,-0.13751 0.6053,0.44543 2.1773,-0.52783 3.969,5.14759 6.3027,0.33796 0,0 0.069,0.10077 0.6021,-0.22919 -0.2337,-1.19159 -0.057,-3.01434 -0.7656,-3.47553 -5.9613,-3.87835 -12.2494,-5.05517 -19.2989,-0.89624 -10.1844,6.34455 -10.6476,15.75623 -6.0365,25.08796 0.2797,0.32312 0.5593,0.64624 1.2266,0.93731 0,0 -0.022,-0.38849 -0.1038,0.36438 0.3985,0.12085 0.797,0.2417 1.0584,0.28296 0,0 -0.076,0.1391 -0.06,0.85333 6.8407,6.13636 13.5876,6.79523 21.3241,2.05585 0,0 -0.035,0.11847 0.5887,0.0189 0.483,-0.35016 0.966,-0.70038 1.3867,-1.06262 0,0 0.014,0.0619 0.5627,-0.16119 0.049,-1.06611 0.097,-2.13227 0.2739,-3.48395 0,0 -0.2593,-0.17493 -0.5575,-0.71338 -0.9501,-0.0906 -2.1769,-0.61023 -2.8067,-0.2041 -5.1069,3.29364 -10.1825,3.63366 -15.5164,-0.0824 -0.1852,-0.24683 -0.4319,-0.37689 -0.9826,-0.9209 -0.3254,-0.17621 -0.6507,-0.35248 -0.8361,-0.42529 0,0 0.105,-0.13873 -0.1345,-0.87341 -3.1048,-5.06952 -2.2365,-10.04688 0.128,-14.98072 0,0 0.015,0.21912 0.6605,0.0748 0.1677,-0.37726 0.3354,-0.75452 0.3214,-1.21545 m 53.933,-171.08539 c 0,0 0.1225,0.0317 0.3044,-0.65576 -0.4494,-0.526 -0.8988,-1.05201 -1.3005,-1.83411 0,0 -0.1548,-0.20959 -0.2164,-1.04626 -10.711,0 -21.422,0 -31.7291,0 0,21.69445 0,43.63275 -0.1835,66.49664 0,20.60754 0,41.21503 0,61.97247 9.2695,0 18.0144,0 26.857,0 0.1161,-0.64502 0.2748,-1.10766 0.2714,-1.56915 -0.1911,-26.65802 -0.4189,-53.3158 -0.5448,-79.97412 -0.01,-1.71582 0.761,-3.43531 1.5577,-4.4527 3.9254,5.8551 7.7711,11.76605 11.8188,17.5354 1.4514,2.06866 3.3901,3.79535 5.1221,6.31323 0.4633,0.89838 0.9265,1.79676 1.3809,2.78711 0,0 0.079,0.0486 0.3887,0.60712 1.0323,1.35364 2.0646,2.70734 3.0971,3.97998 0,0 -0.081,0.008 0.087,0.67706 1.6357,2.14466 3.2713,4.28937 4.9055,6.33588 0,0 -0.098,0.0103 0.1309,0.67224 2.3011,3.12781 4.6023,6.25555 6.9366,9.26691 0,0 -0.1175,-0.0292 -0.036,0.44464 0.319,0.32062 0.6379,0.64123 1.492,1.47992 1.9278,2.51928 3.8555,5.03851 5.862,7.66058 6.4387,-8.98804 12.6266,-17.5769 18.7605,-26.20422 4.6954,-6.60407 9.2015,-13.34638 14.0211,-19.85749 3.4138,-4.61193 7.2107,-8.94043 10.7302,-12.61316 -0.072,0.32459 -0.2097,0.64942 -0.2081,0.97364 0.135,28.07892 0.2742,56.15783 0.4739,84.23626 0,0.56525 0.7227,1.12531 2.002,1.8407 8.2936,0 16.5872,0 25.0984,0 -0.1455,-3.14264 -0.2589,-5.59124 -0.3015,-8.97052 -0.1329,-10.66644 -0.2658,-21.33288 -0.1399,-32.85382 -0.1089,-2.05768 -0.2178,-4.11535 -0.19,-7.09857 -0.057,-5.03583 -0.1143,-10.07172 0.1037,-16.00507 -0.2053,-14.6795 -0.4107,-29.35894 -0.5728,-44.97998 0,-6.57043 0,-13.14093 0,-19.56268 -8.0055,0 -15.3059,-0.0163 -22.6062,0.004 -8.4605,0.0239 -8.4604,0.038 -12.0315,8.96655 -3.5133,5.33325 -7.0267,10.6665 -11.1291,16.36651 -0.929,1.58704 -1.8579,3.17408 -2.8102,4.91394 0,0 -0.024,-0.15277 -0.4982,0.27369 -2.4502,3.89941 -4.9004,7.79889 -7.2924,11.63116 0,0 -0.076,-0.0458 -0.6211,0.31732 -1.4256,2.31147 -2.8512,4.62299 -4.1308,6.92737 0,0 -0.013,-0.14551 -0.509,0.13947 -0.3082,0.65289 -0.6164,1.30578 -1.1845,2.21991 0,0 0.037,0.36657 -0.3587,0.59344 0.1316,-0.10693 0.2632,-0.21381 0.1307,0.38721 -1.9319,2.93713 -3.8639,5.8742 -6.2526,9.50567 -1.9928,-3.09631 -3.5472,-5.50421 -5.0944,-7.91674 -5.1555,-8.03931 -10.3086,-16.0802 -15.3679,-24.56934 -0.1762,-0.55042 -0.3523,-1.10083 -0.772,-1.79108 0,0 -0.1567,0.23291 -0.1729,-0.49835 -4.0945,-6.36914 -8.189,-12.73828 -12.2863,-19.03589 0,0 0.072,-0.003 -0.065,-0.63177 -0.6397,-0.81458 -1.2794,-1.62909 -1.9552,-2.38196 0,0 0.063,0.0333 -0.011,-0.59644 -0.3086,-0.18286 -0.6171,-0.36572 -0.9615,-0.42724 m -152.1797,178.14047 c 0,0 -0.1238,0.0213 -0.2174,0.67469 0.4187,0.47473 0.8375,0.94946 1.25,1.32647 0,0 -0.097,0.0126 0.088,0.61957 0.6232,0.83704 1.2464,1.67414 1.9129,2.37464 0,0 -0.1383,-0.0374 0.053,0.56317 0.3323,0.16644 0.6647,0.33294 0.7269,0.34784 0,0 -0.1563,0.26751 0.082,0.94165 0.9903,1.44159 1.9806,2.88324 3.5981,5.23767 2.219,-4.27808 3.9964,-7.70484 5.6474,-11.06952 0,0 0.064,0.12537 0.7081,0.0913 0.1628,-0.38989 0.3257,-0.77985 0.3397,-1.10468 0,0 0.069,0.14679 0.6046,-0.17712 0.4957,-0.89435 0.9914,-1.78864 2.0702,-2.37274 0.1227,0.18267 0.2455,0.36541 0.2627,1.46313 0,6.60211 0,13.20429 0,19.81226 2.5827,0 4.6521,0 6.6333,0 0,-11.29236 0,-22.3133 0,-34.83918 -3.2489,1.56855 -5.6098,2.70838 -7.8698,3.84321 0,0 -0.021,-0.0987 -0.632,0.19281 -0.5647,0.96722 -1.1295,1.93444 -2.1387,3.40332 -1.3591,2.51385 -2.7574,5.0075 -4.0656,7.54754 -1.2269,2.38208 -2.3787,2.29627 -3.7275,0.0967 -1.9429,-3.16809 -4.3139,-6.12884 -5.8484,-9.47772 -1.7579,-3.83612 -4.1471,-5.11102 -8.3381,-2.74176 0,10.68872 0,21.37744 0,31.90552 2.2894,0 4.0231,0 5.964,0 0,-7.01959 0,-13.77484 0.2399,-20.58692 0,0 0.016,-0.24603 0.5138,-0.0577 0.3928,0.36834 0.7856,0.73669 1.1802,0.9718 0,0 -0.1331,0.004 0.01,0.6195 0.3241,0.1731 0.6482,0.3462 0.9583,0.39447 m 119.031,-632.55935 c -0.3444,0.26328 -0.6888,0.52655 -1.1103,0.68711 0,0 0.14,0.003 0.14,0.003 0,0 -0.2116,0.0189 -0.5754,0.5495 -0.1044,0.18732 -0.2087,0.37463 -1.0007,0.69882 -5.0505,1.7982 -9.9981,4.53203 -15.1837,5.10298 -4.2636,0.46944 -8.8098,-1.62875 -13.883,-2.79674 -2.4245,-1.59596 -4.8492,-3.19192 -7.4197,-5.38385 -0.5205,-0.60585 -1.0409,-1.21168 -1.8435,-1.69073 0,0 0.1229,0.28386 0.1787,-0.42813 -0.384,-0.15628 -0.7681,-0.31256 -0.8355,-0.34372 0,0 0.1287,-0.31532 -0.1672,-0.99762 -1.3016,-3.26248 -2.6031,-6.52495 -3.8331,-9.60791 -3.077,0.22531 -6.1044,0.65544 -9.1255,0.61493 -3.6986,-0.0496 -7.3921,-0.4933 -11.6986,-1.10816 -3.2113,-0.63774 -6.4226,-1.27548 -9.8686,-2.52763 -2.0381,-1.61749 -4.0762,-3.23497 -6.1398,-4.94482 0,0 -0.093,-0.021 -0.5338,-0.47915 -2.4453,-1.79496 -4.8906,-3.58995 -7.4832,-5.38613 0,0 -0.001,0.14729 -0.05,-0.24988 -0.3387,-0.1396 -0.6774,-0.27921 -0.6516,-1.4471 1.0309,-0.23961 2.0618,-0.47923 3.5416,0.0318 3.3152,0.0725 6.63,0.18656 9.9455,0.21102 34.8722,0.25737 69.7446,0.47187 104.6164,0.76926 7.8114,0.0666 9.4221,-2.40439 6.1205,-9.80875 0,0 0.063,-0.0276 -0.074,-0.64204 -0.6534,-0.78326 -1.3068,-1.56651 -2.1016,-2.8493 -0.2794,-0.19316 -0.5587,-0.38634 -0.8476,-0.5121 0,0 0.067,-0.011 -0.2362,-0.61837 -9.1297,-7.94712 -19.7929,-11.13273 -32.3898,-10.51895 -0.8102,-0.23327 -1.6204,-0.46654 -3.3511,-0.86017 -15.691,0.0793 -31.382,0.15866 -47.9734,0.14675 -3.0166,0.0288 -6.0333,0.0576 -9.971,-0.11557 -6.0433,0.0819 -12.0865,0.16371 -19.0575,0.16302 -5.0056,0.0266 -10.0113,0.0532 -15.8916,-0.13608 -2.3932,0.0741 -4.7865,0.1482 -8.1107,0.13535 -7.3127,0.0108 -14.6253,0.0292 -21.9379,0.0313 -48.3611,0.0138 -96.7222,0.0241 -145.7574,-0.16322 -0.4571,0.0733 -0.9142,0.14663 -2.0194,0.13196 -0.4328,0.0393 -0.8655,0.0785 -2.0065,-0.0923 -1.1201,0.25569 -2.2403,0.51138 -3.979,1.00664 0.7161,1.41412 1.4323,2.82823 2.2864,4.24884 0,0 0.01,-0.138 -0.046,0.5639 1.1231,1.39417 2.2462,2.78832 3.3832,4.11618 0,0 -0.067,0.012 0.1142,0.64418 0.9788,1.18634 1.9576,2.3727 2.9485,3.95366 0.095,0.28925 0.2952,0.43587 0.8689,1.00421 0.3563,0.16629 0.7126,0.33258 0.9152,0.38472 0,0 -0.115,0.153 0.1146,0.73882 0.6847,0.42306 1.3694,0.84613 2.2308,1.85952 0.351,0.20263 0.702,0.40525 1.2725,1.2017 3.8419,4.26561 7.5176,8.70179 11.6198,12.70027 1.3549,1.32061 3.8484,2.21068 5.7569,2.10756 13.7399,-0.7424 27.4632,-1.79087 42.1249,-2.61431 17.3161,-0.59782 34.6322,-1.19565 51.6112,-1.22944 -1.0545,1.17671 -1.9887,2.49559 -3.1838,3.50605 -5.8447,4.94202 -11.759,9.80184 -18.0651,14.68367 -0.4014,0.30059 -0.8027,0.60119 -1.4303,0.90903 0,0 0,0.22633 -0.6362,0.45921 -8.3024,4.05826 -14.7277,9.78669 -17.4309,19.02904 -0.6938,2.37219 -1.9692,4.57585 -2.994,6.84944 -7.9778,17.69889 -15.9596,35.396 -24.4843,53.59534 -5.3297,11.39957 -10.6594,22.79913 -16.3845,34.79535 -4.2082,8.72659 -8.4164,17.45315 -13.0234,26.68616 -5.2698,11.565 -10.5394,23.13 -16.2737,35.24545 -0.9063,2.17157 -1.8125,4.34311 -3.2663,6.90704 -9.1234,20.27942 -18.2467,40.55884 -27.5921,61.33194 12.6064,-4.38571 24.4818,-8.49667 36.3293,-12.68698 0.7516,-0.26584 1.285,-1.1485 2.4283,-1.92349 0.1466,-0.10391 0.2932,-0.2078 0.9765,-0.24106 1.4917,-1.63956 2.9834,-3.27911 4.9008,-5.4541 1.1168,-2.22464 2.3231,-4.40942 3.3353,-6.68073 4.8516,-10.88635 9.6506,-21.79608 14.3478,-32.70309 0,0 10e-4,0.12064 0.5972,-0.17703 0.1691,-0.62949 0.3383,-1.25894 0.379,-1.85697 0,0 0.036,0.12708 0.6068,-0.25995 5.7806,-12.59008 11.5612,-25.18014 17.7487,-38.32165 2.4859,-5.2514 5.0656,-10.461 7.432,-15.76575 2.4714,-5.5404 4.7373,-11.17248 7.3707,-17.41873 1.6384,-3.42319 3.2767,-6.84634 5.5118,-10.54874 2.134,-4.55725 4.2679,-9.1145 6.3271,-13.66067 0,0 0.017,0.0738 0.5396,-0.39929 0.5092,-1.55732 1.0184,-3.11466 1.4169,-4.64887 0,0 0.025,0.11011 0.6261,-0.24209 6.3092,-13.72944 12.6183,-27.45887 19.0043,-41.44596 0,0 -0.2496,-0.10006 0.2778,-0.47925 0.9447,-2.37197 1.8894,-4.74398 3.0976,-7.81488 0.9463,-1.31121 1.8925,-2.62243 2.9534,-3.12316 -0.152,1.4577 -0.137,2.95632 -0.4828,4.36648 -2.4208,9.87216 -4.9161,19.72601 -7.5679,30.35828 -2.0118,7.11276 -4.1383,14.19568 -6.0001,21.3475 -1.5749,6.05005 -2.8432,12.17996 -4.9248,18.60034 -0.4676,0.83557 -1.1105,1.61899 -1.377,2.51444 -5.5494,18.64489 -11.0561,37.30246 -16.8302,56.41211 -0.1411,0.49835 -0.2822,0.99667 -0.7541,2.19937 -1.9833,6.42782 -3.9668,12.85562 -6.0617,20.04675 -3.1435,10.89673 -6.2871,21.79346 -9.5873,33.23349 7.25,-1.76819 13.8828,-3.14215 20.342,-5.09125 2.3102,-0.69714 5.1313,-2.31604 6.1362,-4.3114 8.2688,-16.41784 16.1647,-33.02344 24.6743,-50.04147 3.4637,-7.54785 6.9273,-15.09573 10.5739,-23.18173 0.096,-0.44525 0.1911,-0.89054 0.9536,-1.49994 0.2933,-0.59781 0.5867,-1.19562 1.1314,-2.26319 0.025,-0.1759 0.049,-0.3518 0.4562,-0.61892 0.09,-0.44605 0.1792,-0.89209 0.9101,-1.93051 1.5197,-2.92249 3.0393,-5.84494 5.0892,-9.03598 1.1897,-2.65888 2.3795,-5.31772 3.4208,-7.94999 0,0 0.033,0.14713 0.5807,-0.2789 3.1867,-6.84417 6.3734,-13.68835 10.1743,-21.03061 1.9172,-3.01413 3.8343,-6.02822 5.7515,-9.04235 0.5413,0.20419 1.0827,0.40841 1.624,0.61261 -0.7552,3.56991 -1.5105,7.13983 -2.6842,11.3262 -4.1522,21.3999 -8.3043,42.79983 -12.7946,65.004 0.06,0.65213 0.2856,1.33996 0.1543,1.95108 -2.5534,11.88418 -5.1484,23.75946 -7.8841,36.05639 -0.012,1.31366 -0.024,2.62729 -0.7551,4.37381 -0.097,0.26248 -0.1947,0.52494 -0.9236,1.08814 -1.0089,2.33609 -2.0178,4.67218 -3.4777,8.0523 3.49,-1.24005 5.9167,-1.7835 8.0207,-2.92282 3.3749,-1.82751 7.2933,-3.43115 9.6017,-6.25695 3.0819,-3.7724 4.8434,-8.62339 7.5835,-13.59607 3.4993,-6.36026 6.9986,-12.72052 10.4024,-19.06766 0,0 0.043,0.0863 0.4939,-0.35428 0.9061,-1.68341 1.8123,-3.36679 3.1645,-5.58603 1.8038,-3.29172 3.6075,-6.58343 5.4248,-9.93533 0,0 -0.054,-0.03 0.4307,-0.49268 0.7241,-1.64102 1.4481,-3.28207 2.0824,-4.92245 0,0 0,0.0897 0.5682,-0.11652 0.4133,-0.65408 0.8265,-1.3082 1.636,-2.52609 0.6366,-1.45975 1.2732,-2.9195 1.7975,-4.3664 0,0 0.017,0.11185 0.6392,-0.20007 3.4864,-6.59042 6.9728,-13.18088 10.3677,-19.76089 0,0 0.016,0.0908 0.5507,-0.35755 1.1873,-2.5476 2.3745,-5.09521 4.2966,-8.30993 0.049,-0.32715 0.098,-0.6543 0.4327,-0.90238 0,0 -0.082,0.31845 -0.082,0.31845 0,0 -0.2678,-0.20965 0.2489,-0.68893 0.5739,-0.47925 1.1479,-0.95847 2.5673,-2.14362 -0.389,5.16349 -0.7029,9.32993 -1.312,13.93979 -2.1682,19.62241 -4.3364,39.24481 -6.6176,59.88986 3.1676,-2.49386 5.7051,-4.49157 8.0596,-6.56436 0,0 -0.058,0.18891 0.5555,-0.0325 0.1869,-0.35724 0.3738,-0.71451 0.4956,-0.76175 0,0 0.3097,0.0667 0.8858,-0.25921 4.2913,-4.04078 8.5825,-8.08158 13.0664,-12.18714 0,0 -0.054,-0.19586 0.2308,-0.61877 0.5363,-0.45871 1.0726,-0.91742 2.2447,-1.59372 9.5011,-8.47788 19.0064,-16.95096 28.499,-25.4382 1.6302,-1.45749 3.2067,-2.97489 5.3773,-4.56443 0.4582,-0.59353 0.9162,-1.18707 2.1564,-2.09143 0.6223,-0.56552 1.2446,-1.13104 2.0875,-1.55401 -0.087,-0.0186 -0.1748,-0.0371 0.051,-0.0514 0,0 0.2273,-0.21582 0.8558,-0.21142 1.0684,-1.28626 2.1369,-2.57254 3.9315,-4.16998 0.5354,-0.56757 1.0708,-1.13514 1.9642,-1.59867 2.4219,-2.34591 4.8438,-4.69183 7.8394,-7.19452 0.2216,-0.3154 0.4433,-0.63079 1.145,-0.91589 0.926,-0.56329 1.852,-1.12659 2.6316,-1.84308 0,0 -0.1465,0.15305 0.4992,0.003 0.1663,-0.36854 0.3327,-0.73707 0.3923,-0.80451 0,0 0.3003,0.10904 0.8544,-0.20392 1.0591,-1.03119 2.1183,-2.06238 3.0591,-3.14355 0,0 -0.048,0.11914 0.5263,-0.0424 0.1999,-0.32633 0.3998,-0.65268 0.458,-0.88745 0,0 0.093,0.14044 0.7186,-0.10999 1.8203,-1.62082 3.6406,-3.24164 5.3427,-4.94528 0,0 -0.08,0.1199 0.4977,-0.026 0.178,-0.33499 0.356,-0.66998 0.4251,-0.87509 0,0 0.1295,0.10937 0.7293,-0.12867 1.1134,-1.27255 2.2269,-2.54507 3.8615,-3.9559 0.2804,-0.20721 0.5608,-0.4144 0.863,-0.63656 0,0 0.027,-0.004 0.6163,-0.36408 1.8282,-1.05441 3.5481,-2.41253 5.5037,-3.10977 7.7493,-2.76285 15.5722,-5.31897 23.952,-8.01138 0.2278,-0.31104 0.4556,-0.62207 1.0165,-0.89545 0,0 0.3309,-0.0538 0.9008,0.24191 19.2732,-6.55676 38.5478,-13.10962 57.8045,-19.71438 0.2411,-0.0828 0.2543,-0.83036 0.3979,-1.35544 -0.6339,-0.0392 -1.1292,-0.13638 -1.6109,-0.0901 -20.3502,1.95807 -40.6872,4.06561 -61.0521,5.85568 -16.7317,1.47074 -33.4922,2.62543 -50.2488,3.79361 -5.364,0.37391 -10.7561,0.34336 -15.7022,-0.46054 0.014,-0.35034 0.027,-0.70065 0.4763,-1.22992 0.446,-0.6452 0.892,-1.29043 1.5902,-2.44622 0.3584,-0.43244 0.7168,-0.86487 1.6538,-1.62919 1.1278,-1.9841 2.2556,-3.9682 3.2992,-5.94439 0,0 0.012,0.0836 0.5304,-0.28156 0.5008,-0.9183 1.0017,-1.83661 1.4345,-2.75812 0,0 0.013,0.0669 0.5947,-0.27822 1.4986,-2.57004 2.9973,-5.14008 4.4233,-7.70255 0,0 0.011,0.0723 0.5818,-0.29761 1.4388,-2.58313 2.8775,-5.16626 4.7803,-8.24105 2.9293,-5.4784 5.8586,-10.95676 8.6848,-16.43635 0,0 0.01,0.10297 0.5945,-0.18571 0.7286,-1.71837 1.4572,-3.43675 2.8135,-5.76093 1.2129,-2.7006 2.4257,-5.40123 4.2931,-8.27014 4.667,-6.10728 5.7923,-10.76646 3.4046,-14.87925 -1.2724,1.83183 -2.4813,3.57229 -3.8846,5.39418 0,0 0.034,0.20814 -0.4231,0.57667 -0.5699,0.98654 -1.1398,1.97309 -1.925,3.43973 -0.027,0.17325 -0.055,0.3465 -0.244,0.39151 0,0 0.2749,0.0208 -0.8041,0.7469 m 202.87333,511.22637 c 0,0 0.2464,0.40216 0.2265,0.92181 0.3151,0.41486 0.6303,0.82965 0.8443,1.68207 0,0 0.052,0.44598 -0.479,0.79358 -0.2543,0.57202 -0.5087,1.14404 -0.6798,1.5025 0,0 -0.2159,-0.077 -0.6948,0.34393 -0.8366,1.23908 -1.6731,2.47809 -2.3814,3.70154 0,0 -0.041,-0.12231 -0.5778,0.26691 -1.5284,2.16656 -3.05683,4.33319 -4.52453,6.89563 0,0 0.3972,-0.0516 -0.2984,-0.22669 -0.2383,0.40454 -0.4765,0.80915 -1.1836,1.71192 -4.4004,6.07904 -8.8008,12.15814 -13.8115,18.54376 -1.5726,2.21966 -3.1451,4.43933 -4.6495,6.9389 0,0 0.2807,-0.0645 -0.3955,-0.0799 -0.1425,0.41076 -0.2851,0.82159 -0.284,1.08575 0,0 -0.1503,-0.13971 -0.7245,0.21747 -2.0922,2.97559 -4.1843,5.95111 -6.2062,8.92425 0,0 -0.012,-0.0692 -0.572,0.28046 -0.9693,1.43915 -1.9386,2.8783 -2.8565,4.21454 0,0 -0.1079,-0.0399 -0.6752,0.27686 -0.6522,1.08471 -1.3043,2.16943 -1.8888,3.24102 0,0 -0.024,-0.0645 -0.5596,0.2295 -0.4686,0.60534 -0.9372,1.21063 -1.766,2.40234 -0.8713,1.23559 -1.7427,2.47113 -3.1005,4.39661 9.9073,0 18.7089,-0.17597 27.4981,0.0784 4.0422,0.11707 6.8499,-0.89025 9.039,-4.52899 4.0898,-6.79828 8.59253,-13.34826 13.59073,-20.47406 4.807,-6.22101 9.614,-12.44201 15.0219,-19.44067 2.5687,3.74634 4.5254,6.60016 6.5004,10.04797 0.5739,0.79352 1.1478,1.58698 1.9207,3.03961 2.5863,3.48218 5.1725,6.96442 7.7542,10.36432 0,0 -0.082,0.0128 0.1017,0.66358 1.3213,1.75659 2.6426,3.51312 4.1729,5.91845 1.5965,2.14197 3.193,4.284 4.8071,6.3573 0,0 -0.07,0.0134 0.1105,0.68976 1.0126,1.5221 1.8037,3.27686 3.095,4.50629 1.5446,1.47076 3.4854,3.48303 5.3089,3.54053 8.805,0.27771 17.6282,-0.023 27.1096,-0.0974 0.1989,-0.68854 0.7932,-1.64655 0.5359,-2.02411 -2.7705,-4.06427 -5.6752,-8.03699 -8.6167,-12.05365 0,0 -0.025,0.0715 -0.1918,-0.53168 -0.633,-0.78516 -1.266,-1.57031 -1.9149,-2.30939 0,0 -0.036,-0.0325 -0.1349,-0.72357 -3.711,-5.07819 -7.4218,-10.15643 -11.1319,-15.13263 0,0 0.1016,-0.01 -0.095,-0.59766 -0.6716,-0.42553 -1.3434,-0.85107 -2.4782,-2.2583 -0.2277,-0.28112 -0.4554,-0.56225 -0.5542,-1.18432 -0.3309,-0.30915 -0.6617,-0.61823 -0.9994,-0.86426 0,0 0.062,-0.0114 -0.1613,-0.58972 -0.6147,-0.82514 -1.2294,-1.65021 -1.8102,-2.39404 0,0 0.081,-0.0342 0.1491,-0.66181 -0.3833,-0.4798 -0.7666,-0.95959 -1.1534,-1.36963 0,0 0.07,-0.004 -0.1483,-0.64343 -1.6008,-2.00928 -3.2016,-4.01855 -5.2769,-6.49835 -1.1007,-1.31055 -2.2014,-2.62104 -3.3668,-4.66095 -2.4234,-3.70032 -5.006,-7.31104 -7.1709,-11.15686 -0.6311,-1.12097 -0.6678,-3.34357 0.041,-4.32672 4.4218,-6.1308 9.1656,-12.02814 13.7406,-18.05005 8.749,-11.51593 17.4566,-23.06342 26.8258,-34.80799 1.8109,-2.06482 3.6217,-4.12963 6.5392,-7.45617 -11.8858,0 -22.2695,-0.0245 -32.652,0.0665 -0.5686,0.005 -1.1287,0.97271 -1.6273,1.53711 0,0 0.043,-0.0665 -0.4194,0.18914 -0.1598,0.30426 -0.3197,0.60858 -0.9998,1.30481 -1.2211,1.81964 -2.4422,3.63928 -3.5807,5.47992 0,0 0.017,-0.0834 -0.5355,0.23969 -0.2099,0.58032 -0.4199,1.1607 -0.5295,1.51037 0,0 -0.2312,-0.0992 -0.7687,0.29016 -1.5159,2.21515 -3.0319,4.43036 -4.4786,6.69519 0,0 0.022,-0.0821 -0.4938,0.31373 -0.9776,1.64721 -1.9553,3.29443 -3.2372,5.58929 -4.5716,6.24499 -9.1431,12.48993 -14.1655,19.35083 -8.9652,-13.0517 -17.3151,-25.24762 -25.71653,-37.40802 -1.8967,-2.74524 -3.9692,-4.86469 -7.9674,-4.62164 -5.9517,0.36181 -11.9475,-10e-4 -18.4055,-0.76001 -3.3725,0 -6.745,0 -11.3516,0 2.2258,2.76111 3.6408,4.51642 5.0339,6.46618 0,0 0.1828,0.0698 0.4995,0.59034 1.017,0.93689 2.0339,1.87377 3.2697,3.47442 4.5276,6.25885 9.134,12.46253 13.5611,18.79163 4.7169,6.74328 9.1504,13.6864 13.9282,20.38495 2.86243,4.01306 6.14733,7.72467 9.14643,11.71783 0,0 -0.079,-0.28406 0.071,0.16303 m 26.5609,116.36297 c -0.4246,-0.41632 -0.8491,-0.8327 -1.265,-1.16961 0,0 0.079,-0.0141 -0.1021,-0.58808 -0.5259,-0.59283 -1.0516,-1.18573 -1.6694,-1.64856 0,0 0.1406,0.0747 -0.051,-0.54675 -0.3555,-0.14783 -0.711,-0.29572 -0.8256,-0.42902 0,0 0.019,-0.24048 -0.2155,-0.88702 -1.9945,-3.60108 -4.4219,-6.151 -9.1252,-3.71735 0,10.12641 -0.022,20.20966 0.041,30.29242 0,0.81391 0.5876,1.62421 1.7886,2.58173 1.256,0 2.512,0 4.1215,0 0,-7.18347 0,-14.01911 0.6924,-20.98139 4.9093,6.03309 9.8186,12.06611 14.9827,18.68708 0.4175,0.46136 0.8351,0.92267 1.2093,1.32971 0,0 -0.048,0.0499 0.3588,0.81048 1.7867,0 3.5734,0 5.3896,0 0,-10.96637 0,-21.85034 0,-32.61773 -2.0814,0 -3.8485,0 -5.7119,0 0,6.71637 0,13.17065 -0.6761,19.81622 -2.6771,-2.74048 -5.3541,-5.48102 -7.9867,-8.70557 -0.214,-0.583 -0.4281,-1.16607 -0.7862,-1.76977 0,0 -0.023,0.14361 -0.1695,-0.45679 m -61.77823,17.85956 c 0.1736,-0.31891 0.3472,-0.63782 0.4545,-0.93658 0,0 0.03,0.0626 0.6584,-0.31025 2.4632,-4.40087 3.4633,-8.94696 1.3836,-13.7221 0,0 0.078,-0.0162 0.012,-0.71808 -0.8144,-1.5509 -1.6288,-3.10181 -2.7132,-4.71094 0,0 -0.068,0.26776 0.033,-0.38361 -0.4527,-0.42669 -0.9055,-0.85339 -1.3546,-1.21063 0,0 0.063,-0.0289 -0.1717,-0.62201 -0.8478,-0.61413 -1.6956,-1.22833 -2.6544,-1.75695 0,0 0.093,0.10485 -0.3227,-0.45942 -2.2853,-0.66345 -4.5707,-1.32696 -7.7125,-2.11169 -4.1042,0.38525 -8.2085,0.77045 -13.1516,1.01977 -0.3146,0.31324 -0.9029,0.62513 -0.9043,0.93976 -0.048,10.22376 -0.04,20.44788 -0.04,31.08399 3.8445,0 7.292,-0.088 10.7331,0.0211 4.905,0.15546 9.5257,-0.47161 13.2121,-4.03765 0,0 0.013,0.0691 0.601,-0.11365 0.5052,-0.62164 1.0103,-1.24323 1.4435,-1.92609 0,0 -0.06,0.0728 0.4943,-0.0449 m -371.608,1.07141 c 0,0 -0.071,6.1e-4 0.1996,0.60919 0.9015,0.5365 1.8029,1.07294 2.5959,1.56763 0,0 -0.037,0.11011 0.2033,0.77808 5.3472,3.48895 11.0004,3.94586 17.5649,1.49975 11.9195,-4.67969 12.05,-21.80151 3.3725,-30.11657 -0.6238,-0.17524 -1.2475,-0.35047 -1.7314,-0.48969 0,0 0.035,-0.14008 -0.3332,-0.7785 -5.2939,-2.36011 -10.5973,-3.55188 -16.5514,0.20471 -2.7157,2.62677 -6.6485,4.78454 -7.881,7.98291 -2.2201,5.76111 -2.5437,12.11725 1.6975,18.20862 0.2855,0.20153 0.571,0.40307 0.8633,0.53387 M 271.30819,754.82837 c 0.169,-0.61426 0.338,-1.22846 0.4044,-1.78748 0,0 0.057,0.10169 0.6721,-0.30633 1.3902,-6.58185 3.7307,-13.13227 3.9493,-19.75281 0.3337,-10.10516 -1.2784,-20.10938 -8.5545,-28.05884 0,0 0.076,-0.003 -0.127,-0.61365 -1.6828,-1.41827 -3.3656,-2.8366 -5.605,-4.46643 -0.7606,-0.62017 -1.5211,-1.24041 -2.4523,-2.51532 -1.3,-0.84918 -2.5999,-1.6983 -4.1781,-3.04321 -0.5477,-0.1167 -1.0954,-0.23346 -2.1441,-0.8728 -5.4858,-1.4447 -10.9716,-2.88941 -17.0539,-4.58386 -0.825,-0.18183 -1.65,-0.36365 -3.4128,-0.73792 -17.2649,-0.15448 -34.5296,-0.34021 -51.7947,-0.40393 -1.3744,-0.005 -2.7518,0.83362 -4.2427,1.83289 0.045,0.18267 0.09,0.36541 0,1.46777 0,41.98419 0,83.96838 0,125.71722 8.9899,0 17.3914,0 25.7804,0 0,-12.76751 0,-25.22143 0.154,-38.31665 0.064,-0.43396 0.1278,-0.86792 0.6145,-1.2976 0,0 0.402,-0.13147 1.1373,0.0106 9.7506,-0.35663 19.582,-0.0722 29.2246,-1.28675 6.8572,-0.86377 13.46,-3.74737 20.0568,-5.80041 0,0 -0.07,0.12018 0.5798,0.0457 0.5557,-0.23889 1.1115,-0.47778 1.5719,-0.77502 0,0 -0.042,0.10339 0.6842,0.0135 2.3529,-2.08197 4.7058,-4.16394 7.789,-6.56525 1.5459,-1.95636 3.0918,-3.91272 4.874,-5.63831 0.5459,-0.67498 1.0917,-1.35003 1.528,-2.03271 0,0 0,0.10986 0.5489,-0.23236 m 431.2777,128.33514 c 0,0 -0.078,-0.13397 -0.3142,0.58948 0.7479,1.46143 1.4957,2.92285 2.2444,4.46106 0,0 0.076,0.014 0.432,0.71545 1.782,0 3.564,0 6.1024,0 -1.9291,-3.74859 -3.5645,-6.92639 -5.2898,-10.03106 0,0 0.076,0.0877 0.2451,-0.61725 -0.7349,-1.61774 -1.4698,-3.23541 -2.8398,-5.42096 -0.4042,-1.0119 -0.8085,-2.0238 -1.1993,-3.62439 -0.4159,-0.83234 -0.8318,-1.66467 -1.2185,-2.82959 0,0 -0.1167,-0.31287 -0.034,-0.92273 -0.2716,-0.24542 -0.5431,-0.49091 -0.7627,-0.6062 0,0 0.1256,-0.0624 0.085,-0.84241 -0.955,-2.27612 -1.664,-4.70801 -2.9654,-6.76501 -0.6852,-1.08301 -2.3706,-1.99543 -3.6687,-2.08838 -1.1223,-0.0804 -2.9547,0.82049 -3.3978,1.78277 -1.6283,3.53644 -2.8091,7.279 -4.4286,11.61786 -2.9502,6.15027 -5.9004,12.30054 -8.8178,18.38245 4.8213,2.96496 5.1837,2.73212 8.484,-4.76068 0.167,-0.41596 0.3339,-0.83191 0.3948,-1.23187 0,0 0.013,0.1065 0.9513,0.037 4.6929,7.4e-4 9.3858,0.002 14.3212,0.55384 0.5133,0.55859 1.0266,1.11718 1.6754,1.60064 m -62.0094,-706.84788 c -1.2825,-1.08208 -2.565,-2.16416 -4.0805,-3.89317 -4.0725,-3.84861 -8.1451,-7.69721 -12.5183,-12.18781 -7.7629,-4.4106 -15.5257,-8.8212 -23.8177,-13.69604 -6.9173,-2.1969 -13.7018,-5.56922 -20.777,-6.36809 -20.3945,-2.30281 -40.9013,-3.6335 -61.375,-5.20253 -6.7568,-0.51784 -13.5473,-0.5983 -21.1208,-1.02515 -0.9223,-0.31395 -1.829,-0.84125 -2.7691,-0.90982 -14.0806,-1.02682 -28.1656,-1.99316 -43.1577,-3.25879 -0.6269,0.0492 -1.2538,0.0983 -1.7419,0.21491 0,0 -0.01,-0.0469 -0.3353,-0.11344 0,0 -0.2473,0.22656 -1.0505,0.13014 -1.5718,-0.3656 -3.1263,-0.92059 -4.7183,-1.06636 -11.2286,-1.02822 -22.4575,-2.07086 -33.7009,-2.9151 -10.8934,-0.81796 -21.8079,-1.34932 -32.7062,-2.10685 -12.679,-0.88132 -25.3505,-1.87164 -38.8382,-2.95536 -4.5405,0 -9.081,0 -14.7178,0 5.721,8.25975 11.0693,15.98153 16.8914,24.24292 3.7075,4.96225 7.4151,9.92452 11.3729,15.46647 0.4154,0.46823 0.8307,0.93646 1.2684,1.34408 0,0 -0.059,0.0254 0.3118,0.76128 1.6628,0.41617 3.3297,1.20469 4.9876,1.18614 8.661,-0.0969 17.3223,-0.66676 25.9789,-0.58536 50.8137,0.47785 101.6292,0.90045 152.4372,1.75685 19.0663,0.32138 38.1139,1.75693 57.7365,2.84001 0.1958,-0.004 0.3916,-0.007 1.1772,0.38868 5.9411,2.41015 11.8821,4.82031 17.8552,7.3307 0,0 0.1042,0.0147 0.5535,0.43196 1.2258,0.7603 2.4517,1.52058 3.7065,2.18221 0,0 -0.1025,-0.008 0.2615,0.54554 1.9809,1.46119 3.9618,2.92235 6.0536,4.82956 0.1751,0.29067 0.4324,0.4341 1.1053,0.98435 1.3905,1.28747 2.781,2.57495 4.4829,3.87318 0,0 0.02,-0.31094 -0.026,0.35837 0.3945,0.17349 0.7892,0.34698 1.0722,0.42679 0,0 -0.082,0.12077 0.3795,0.65509 5.7812,4.41185 12.3479,2.92842 19.9275,2.86644 -2.4676,-4.24884 -4.5,-7.74823 -6.6382,-11.19417 0,0 0.066,0.0986 -0.086,-0.5672 -1.0761,-1.39178 -2.1521,-2.78357 -3.217,-4.10713 0,0 0.06,-0.0344 -0.168,-0.6633 m 84.7372,35.18628 c -1.489,-0.9421 -2.9779,-1.88419 -4.2712,-2.77332 0,0 0.05,-0.19655 -0.3571,-0.73277 -5.3181,-1.96695 -10.6363,-3.9339 -16.747,-6.15134 -1.38,0.0427 -2.7601,0.0855 -4.6141,-0.61465 -16.5435,-0.0316 -33.0871,-0.0632 -50.5575,-0.24443 -4.7161,-0.004 -9.4474,-0.22034 -14.1398,0.11148 -1.5148,0.1071 -2.9275,1.65565 -4.4352,2.38135 0,0 -0.1662,0.0376 -0.6453,0.45076 -1.3006,1.99232 -2.6013,3.98465 -4.4858,6.31465 -6.497,10.5639 -12.9939,21.12781 -19.416,31.69854 0,0 -0.036,-0.0659 -0.5822,0.3355 -4.6311,7.47168 -9.2621,14.94339 -13.8069,22.39697 0,0 -0.05,-0.0726 -0.5369,0.36664 -3.7442,5.69904 -7.4884,11.39807 -11.2326,17.09714 0.3913,0.53583 0.7825,1.07165 1.1738,1.60748 24.2106,-1.39633 48.4142,-2.93756 72.6349,-4.13098 13.1023,-0.6456 26.2339,-0.69754 40.0643,-0.64432 1.4684,-0.26929 2.9367,-0.5386 5.1361,-0.55618 5.485,2.20538 10.9698,4.41074 16.6412,7.01932 0.4745,0.26016 0.949,0.52029 1.7222,1.3937 0.2144,0.0759 0.4288,0.15177 0.8583,0.75971 3.7622,5.59421 7.5244,11.18838 11.1878,17.04187 0,0 0.2367,0.14484 0.5426,0.72763 0.7794,1.26327 1.5589,2.52652 2.5271,4.09555 5.9232,-14.55627 8.5622,-28.99005 9.3114,-43.78809 0.8134,-16.06704 -0.2654,-31.77809 -9.5724,-45.68612 0,0 0.068,-0.007 -0.048,-0.6866 -1.504,-1.88629 -3.008,-3.77259 -4.4515,-5.67818 0,0 -0.01,-0.0632 -0.2954,-0.53194 -0.4193,-0.33757 -0.8385,-0.67512 -1.6052,-1.57937 M 323.09109,864.117 c -1.1147,-2.23291 -2.2295,-4.46582 -3.1664,-6.81707 0,0 -0.1097,-0.18323 -0.2301,-0.99298 -2.748,-1.95087 -5.3762,-2.51777 -7.0028,1.22033 -2.9128,6.69367 -5.6552,13.46155 -8.4062,20.35395 0,0 0.1566,-0.06 -0.4661,0.24713 -1.4758,3.44592 -2.9516,6.89184 -4.4761,10.45153 5.5711,0.74091 5.5711,0.74091 7.7444,-3.15679 0.5783,-1.26539 1.1565,-2.53077 2.6449,-3.79792 3.6648,-0.007 7.3589,-0.28631 10.9806,0.10535 1.5825,0.1712 3.9988,1.44379 4.3428,2.68549 1.28,4.62011 3.9713,5.57031 8.7205,4.10211 -2.3498,-4.94605 -4.6649,-9.81903 -7.0111,-14.57831 0,0 0.1149,0.026 0,-0.46442 -0.053,-0.15832 -0.1059,-0.31671 -0.1427,-1.20587 -1.2225,-2.48126 -2.445,-4.96252 -3.7573,-7.41199 0,0 0.086,0.0407 0.222,-0.74054 m 435.8265,9.9209 c -0.1247,0.65131 -0.2495,1.30268 -0.3066,1.83631 0,0 -0.1188,-0.0656 -0.7373,0.25256 -1.7802,4.16455 -3.5603,8.32916 -5.449,12.74762 2.5712,0 4.6664,0 7.0344,0 0.8059,-2.67175 1.589,-5.26788 2.2379,-7.87402 0,0 -0.01,0.13403 0.7385,0.32824 0.749,-0.14172 1.4979,-0.28338 3.0451,-0.30121 1.0735,-0.0376 2.1471,-0.0752 4.1157,-10e-4 2.7041,0.1856 5.40823,0.37115 7.88043,0.70459 0,0 0.1406,0.23632 0.138,0.85589 0.6341,1.15711 1.2683,2.31421 2.2838,4.1546 1.5231,0.63666 3.0462,1.27332 4.5692,1.91004 0.075,-1.52149 0.6498,-3.23834 0.1437,-4.53266 -3.263,-8.34515 -6.6215,-16.66149 -10.3119,-24.82312 -0.67543,-1.49359 -3.01713,-2.23388 -4.90913,-3.92492 -5.1017,1.26929 -4.5102,6.03564 -5.8075,9.51135 0,0 -0.083,-0.0796 -0.7117,0.22632 -1.12,2.95471 -2.24,5.90942 -3.2659,8.85412 0,0 -0.015,-0.0934 -0.6877,0.0753 m -216.1769,-143.0926 c 0,0 0.089,-0.008 -0.1502,-0.63739 -1.9451,-1.81848 -3.8901,-3.63696 -5.8426,-5.3822 0,0 0.074,0.003 -0.2627,-0.60461 -14.607,-9.07789 -35.8228,-8.36115 -49.0032,2.25775 -2.9156,2.41705 -5.8312,4.83404 -8.7706,6.35772 0,-3.609 0,-7.21801 0,-11.0047 -8.2989,0 -16.0548,0 -23.9789,0 0,31.98359 0,63.77247 0,95.08448 6.1741,0 11.9759,0.0921 17.7722,-0.0455 2.304,-0.0547 4.596,-0.61786 6.967,-1.5434 -0.066,-0.18866 -0.1321,-0.37738 -0.087,-1.44171 -0.096,-2.64978 -0.1915,-5.29962 0,-8.85352 -0.072,-10.05853 -0.1431,-20.11706 -0.087,-30.80096 -0.036,-0.4223 -0.072,-0.84467 0.1111,-1.82611 -0.062,-0.19049 -0.1234,-0.38104 -0.053,-1.38874 -0.016,-1.65271 -0.033,-3.30542 0.2089,-5.85437 -0.6665,-7.18255 1.1619,-13.38861 6.9558,-18.11102 0.6011,-0.49005 0.8692,-1.38891 2.029,-2.16669 7.1049,-4.5639 14.8923,-3.458 22.4266,-2.06701 3.4805,0.64251 6.6045,3.21618 9.7439,5.43023 1.323,5.5691 3.6243,11.10987 3.7866,16.71253 0.4998,17.26324 0.1822,34.55017 0.1822,51.76605 8.6599,0 17.1018,0 25.6452,0 0.1087,-0.67505 0.2538,-1.13898 0.2477,-1.60089 -0.2789,-21.14777 -0.4942,-42.29712 -0.9438,-63.44134 -0.068,-3.20728 -1.2318,-6.39136 -1.817,-10.45319 -1.2302,-2.84253 -2.4604,-5.685 -3.8725,-9.11444 -0.4034,-0.45337 -0.8067,-0.90674 -1.2059,-1.271 m 297.85483,150.08161 c 2.7729,-0.002 5.5482,0.0678 8.3182,-0.0242 3.0446,-0.1012 6.0745,-0.32697 7.6649,3.06945 0,0 -0.069,-0.0276 -0.2694,0.79535 0.7814,5.17237 4.2202,4.45178 8.1645,3.78259 -1.7988,-4.11267 -3.4306,-7.84356 -5.2095,-12.27008 -2.5056,-5.31311 -5.4272,-10.47973 -7.3675,-15.99188 -1.2482,-3.5462 -3.2341,-4.9212 -6.7497,-5.40887 -1.5339,3.62384 -2.9368,7.15722 -4.512,10.61194 -2.8251,6.19561 -5.7538,12.34393 -8.9579,19.13049 -0.4812,1.31714 -0.9624,2.63428 -1.5235,4.17035 2.4143,0 4.3561,0 6.2781,0 1.1812,-2.72486 2.2946,-5.29309 3.2895,-7.92511 0,0 -0.065,0.1178 0.8743,0.06 m -594.99613,-0.0101 c 4.3579,-0.041 8.7158,-0.0819 13.6853,0.22333 1.0262,1.68927 1.8419,3.56995 3.147,5.00562 0.9955,1.09509 2.6115,1.62616 3.9515,2.40814 0.2841,-1.64923 1.2238,-3.53973 0.723,-4.90003 -1.2422,-3.37438 -3.1422,-6.50653 -4.9498,-10.43334 -2.1398,-5.37653 -4.1377,-10.81775 -6.5359,-16.07642 -0.4953,-1.08606 -2.4419,-1.94989 -3.7924,-2.06543 -1.0576,-0.0905 -2.8304,0.8667 -3.2518,1.81683 -3.2148,7.24811 -6.1757,14.60883 -9.099,21.79126 0,0 -0.1494,-0.10858 -0.5547,0.21442 -0.059,0.33575 -0.1178,0.67145 -0.5873,1.57214 -1.1166,2.67041 -2.2331,5.34082 -3.3639,8.04511 4.7918,1.45935 7.3283,-0.10199 8.2977,-4.50788 0.2405,-1.09307 0.9992,-2.07208 1.4203,-3.12762 0,0 -0.025,0.0993 0.91,0.0339 m 275.4794,0.67255 c 0,0 0.075,0.11273 -0.041,-0.66309 -3.1969,-7.47265 -6.415,-14.93634 -9.578,-22.42334 -0.9527,-2.25488 -1.9253,-3.90832 -4.9997,-3.63 -3.4477,0.31207 -3.2621,2.58588 -3.7107,5.50568 -3.5149,7.61157 -7.1318,15.17907 -10.4594,22.87176 -0.6697,1.5481 -0.911,4.76465 -0.2008,5.1629 2.6856,1.50605 4.5158,-0.19921 5.6781,-2.83136 0.5825,-1.31921 1.4727,-3.42529 2.3891,-3.51666 4.2773,-0.4267 8.6626,-0.66205 12.8983,-0.11145 1.407,0.18286 2.3297,3.07654 3.7591,4.42969 1.1095,1.05041 2.6622,1.63275 4.018,2.42309 0.5783,-1.31286 1.1565,-2.62573 1.6711,-4.55786 -0.4344,-0.90698 -0.8689,-1.8139 -1.4243,-2.65936 m -172.454,-5.6311 c 4.2686,0 8.5372,0 12.7921,0 0,-2.14655 0,-3.85114 0,-5.97357 -4.7856,0 -9.2323,0 -13.7053,-0.8866 0.3509,-2.48194 0.7018,-4.96387 1.9628,-7.28864 4.8566,0 9.7132,0 16.239,0 -1.4717,-2.58557 -2.3662,-4.1571 -4.0531,-5.47052 -6.3792,0.24524 -12.7584,0.49042 -19.8132,0.44367 -0.2684,-0.0837 -0.5333,-0.2088 -0.8068,-0.23157 -0.1152,-0.01 -0.3576,0.19659 -0.3578,0.30499 -0.017,10.58252 -0.015,21.16498 -0.015,31.79059 2.4776,0 4.5145,0 6.9633,0 0,-4.45831 0,-8.58313 -0.1123,-12.737 0,0 -0.028,0.11261 0.9069,0.0486 m -61.2342,8.26544 c -0.045,-0.42682 -0.09,-0.8537 0.039,-1.81641 -0.057,-0.17907 -0.1132,-0.35821 -0.039,-1.46185 0.03,-6.4726 0.06,-12.94519 0.9217,-19.48279 2.4547,-0.23804 4.9094,-0.47607 8.2171,-0.55804 0.5184,-1.47168 1.0367,-2.94336 1.6693,-4.7392 -9.6247,0 -18.4612,0 -27.531,0 0.1247,1.70874 0.2269,3.10651 0.3364,4.60687 3.1148,0 5.8965,0 9.5238,0.36231 0,9.17273 0,18.34546 0,28.86871 2.8642,-2.38263 7.2464,1.93219 6.896,-4.60107 -0.057,-0.18189 -0.1135,-0.36377 -0.034,-1.17853 m 321.3049,-14.27777 c 0,-4.60474 0,-9.20947 0,-14.0343 -2.2403,0 -3.9729,0 -5.8646,0 0,7.13031 0,14.09356 -0.1466,21.80151 0.3549,1.06689 0.6602,2.15344 1.0724,3.19775 3.3202,8.40979 13.0765,11.56366 21.6185,6.74848 1.7349,-2.33539 4.6349,-4.50727 4.9899,-7.03638 1.1364,-8.09515 1.3299,-16.32275 1.8929,-24.58075 -2.9877,0 -4.9236,0 -7.2987,0 0,3.96088 0.2265,7.76648 -0.057,11.53357 -0.3567,4.73279 -1.131,9.4342 -2.3073,14.52612 -3.0375,3.79401 -6.0362,3.61762 -9.9159,0.77131 -4.425,-3.24659 -2.9479,-7.92243 -3.9834,-12.92731 m 47.6046,-13.85114 c -4.4208,0 -8.8416,0 -13.3185,0 0,10.97913 0,21.83374 0,32.63629 5.45,0 10.5815,0 16.4456,0.0519 2.5615,-1.64209 5.2738,-3.09246 7.6549,-4.96429 5.8084,-4.56622 6.9112,-10.88171 4.2816,-17.19275 -2.5229,-6.05505 -7.491,-9.91101 -15.0636,-10.53113 m -351.7122,-39.10355 c 4.0694,0.18701 8.1389,0.37396 11.919,0.5476 0,-44.38494 0,-88.45153 0,-131.78393 -4.0393,0 -7.4567,-0.0841 -10.8683,0.0209 -4.4371,0.13672 -8.8697,0.42371 -13.5502,1.44147 0.055,2.20929 0.11,4.41852 -0.016,7.51325 -0.031,2.69653 -0.063,5.393 -0.3312,9.01117 0.092,19.08343 0.184,38.16693 0.1694,58.16729 0.115,4.99982 0.2299,9.99958 0.094,15.90387 0,13.19757 0,26.3952 0,39.85224 4.4657,-0.29023 8.0822,-0.52527 12.5824,-0.67389 m 281.167,65.30652 c 0,2.11792 0,4.23584 0,6.40985 2.448,0 4.3452,0 6.3524,0 0,-11.06665 0,-21.82788 0,-32.60614 -2.196,0 -4.1,0 -6.3576,0 0,8.61963 0,16.91882 0,26.19629 m -371.0508,-20.78843 c 0,-1.78033 0,-3.56067 0,-5.44647 -2.2052,0 -3.9436,0 -5.6963,0 0,11.0434 0,21.88159 0,32.68463 7.1133,0 13.8749,0 21.0322,0 -0.1615,-1.92889 -0.305,-3.64282 -0.4687,-5.59741 -5.1599,0 -9.883,0 -14.8678,0 0,-7.07477 0,-13.87146 6e-4,-21.64075 z"
   id="path1" />






























































































































































































































































































































































































































































































































































































































































































































































































































































































































</svg>
